%TF.GenerationSoftware,KiCad,Pcbnew,10.0.0*%
%TF.CreationDate,2026-04-10T13:21:52-07:00*%
%TF.ProjectId,v1,76312e6b-6963-4616-945f-706362585858,rev?*%
%TF.SameCoordinates,Original*%
%TF.FileFunction,Copper,L2,Bot*%
%TF.FilePolarity,Positive*%
%FSLAX46Y46*%
G04 Gerber Fmt 4.6, Leading zero omitted, Abs format (unit mm)*
G04 Created by KiCad (PCBNEW 10.0.0) date 2026-04-10 13:21:52*
%MOMM*%
%LPD*%
G01*
G04 APERTURE LIST*
%TA.AperFunction,ComponentPad*%
%ADD10C,1.600000*%
%TD*%
%TA.AperFunction,ComponentPad*%
%ADD11O,1.050000X1.700000*%
%TD*%
%TA.AperFunction,ComponentPad*%
%ADD12O,2.800000X1.100000*%
%TD*%
%TA.AperFunction,ComponentPad*%
%ADD13R,1.700000X1.700000*%
%TD*%
%TA.AperFunction,ComponentPad*%
%ADD14C,1.700000*%
%TD*%
%TA.AperFunction,ComponentPad*%
%ADD15R,1.508000X1.508000*%
%TD*%
%TA.AperFunction,ComponentPad*%
%ADD16C,1.508000*%
%TD*%
%TA.AperFunction,ViaPad*%
%ADD17C,0.600000*%
%TD*%
%TA.AperFunction,Conductor*%
%ADD18C,0.200000*%
%TD*%
G04 APERTURE END LIST*
D10*
%TO.P,R4,2*%
%TO.N,BOOT*%
X160580000Y-123350000D03*
%TO.P,R4,1*%
%TO.N,Net-(U2-GPIO0{slash}BOOT)*%
X150420000Y-123350000D03*
%TD*%
%TO.P,R3,2*%
%TO.N,Net-(U2-EN)*%
X183550000Y-65360000D03*
%TO.P,R3,1*%
%TO.N,EN*%
X183550000Y-55200000D03*
%TD*%
D11*
%TO.P,J1,SH1,SHIELD_SH1*%
%TO.N,GND*%
X187335000Y-100775000D03*
D12*
%TO.P,J1,SH3,SHIELD_SH3*%
X191050000Y-101350001D03*
D11*
%TO.P,J1,SH2,SHIELD_SH2*%
X187335000Y-92025000D03*
D12*
%TO.P,J1,SH4,SHIELD_SH4*%
X191050000Y-91449999D03*
%TD*%
D13*
%TO.P,T1,1,GND_1*%
%TO.N,GND*%
X171260000Y-33050000D03*
D14*
%TO.P,T1,2,IO_2*%
%TO.N,GPIO15*%
X173800000Y-33050000D03*
%TO.P,T1,3,VCC_3*%
%TO.N,3V3*%
X176339999Y-33050000D03*
%TD*%
D13*
%TO.P,L1,1,GND_1*%
%TO.N,GND*%
X128960000Y-31350000D03*
D14*
%TO.P,L1,2,VCC_2*%
%TO.N,3V3*%
X126420000Y-31350000D03*
%TO.P,L1,3,SCL_3*%
%TO.N,GPIO18*%
X123880000Y-31350000D03*
%TO.P,L1,4,SDA_4*%
%TO.N,GPIO17*%
X121340000Y-31350000D03*
%TO.P,L1,5,RES_5*%
%TO.N,GPIO4*%
X118800000Y-31350000D03*
%TO.P,L1,6,DC_6*%
%TO.N,GPIO2*%
X116260000Y-31350000D03*
%TO.P,L1,7,CS_7*%
%TO.N,GPIO5*%
X113720000Y-31350000D03*
%TO.P,L1,8,BL_8*%
%TO.N,3V3*%
X111180000Y-31350000D03*
%TD*%
D15*
%TO.P,DS1,1,VDD_1*%
%TO.N,3V3*%
X118260000Y-92447500D03*
D16*
%TO.P,DS1,2,GND_2*%
%TO.N,GND*%
X120800000Y-92447500D03*
%TO.P,DS1,3,SCK_3*%
%TO.N,GPIO7*%
X123340000Y-92447500D03*
%TO.P,DS1,4,SDA_4*%
%TO.N,GPIO16*%
X125880000Y-92447500D03*
%TD*%
D17*
%TO.N,D+*%
X160700521Y-99500521D03*
%TO.N,D-*%
X160099479Y-98899479D03*
%TO.N,D+*%
X183199479Y-96300521D03*
%TO.N,D-*%
X183800521Y-95699479D03*
%TO.N,VBUS*%
X185050000Y-103200000D03*
X190350000Y-89850000D03*
%TO.N,VBUS_B*%
X190200000Y-95350000D03*
X189700000Y-97700000D03*
%TO.N,GND*%
X185750000Y-99650000D03*
%TO.N,3V3*%
X142600000Y-88600000D03*
X139950000Y-83800000D03*
X118800000Y-46900000D03*
%TO.N,GPIO18*%
X144750000Y-93950000D03*
%TO.N,GPIO17*%
X150050000Y-99100000D03*
X127600000Y-98000000D03*
%TO.N,GPIO4*%
X151150000Y-90850000D03*
X149400000Y-85100000D03*
%TO.N,GPIO5*%
X142700000Y-96150000D03*
X135350000Y-97900000D03*
%TO.N,GPIO2*%
X156350000Y-70250000D03*
X167750000Y-91050000D03*
%TO.N,GPIO15*%
X146150000Y-93350000D03*
%TO.N,Net-(U2-EN)*%
X149800000Y-91200000D03*
X174100000Y-101100000D03*
%TO.N,GND*%
X172850000Y-88000000D03*
%TO.N,Net-(U2-GPIO0{slash}BOOT)*%
X152750000Y-117250000D03*
X161450000Y-111850000D03*
%TO.N,GPIO16*%
X150050000Y-97700000D03*
X138550000Y-97950000D03*
%TO.N,GPIO7*%
X149750000Y-94800000D03*
%TO.N,3V3*%
X171550000Y-118450000D03*
%TD*%
%TO.N,D+*%
D18*
X163768719Y-96149480D02*
X160700521Y-99217678D01*
X160700521Y-99217678D02*
X160700521Y-99500521D01*
%TO.N,D-*%
X163582322Y-95699479D02*
X160382322Y-98899479D01*
%TO.N,D+*%
X183199479Y-96300521D02*
X183048438Y-96149480D01*
X183048438Y-96149480D02*
X163768719Y-96149480D01*
%TO.N,D-*%
X183800521Y-95699479D02*
X163582322Y-95699479D01*
X160382322Y-98899479D02*
X160099479Y-98899479D01*
%TO.N,VBUS*%
X185050000Y-103200000D02*
X185000000Y-103200000D01*
X191252083Y-103200000D02*
X185050000Y-103200000D01*
X192750000Y-101702083D02*
X191252083Y-103200000D01*
X192750000Y-91097917D02*
X192750000Y-101702083D01*
X191502083Y-89850000D02*
X192750000Y-91097917D01*
X190350000Y-89850000D02*
X191502083Y-89850000D01*
%TO.N,VBUS_B*%
X190200000Y-97200000D02*
X190200000Y-95350000D01*
X189700000Y-97700000D02*
X190200000Y-97200000D01*
%TO.N,GND*%
X189300000Y-99650000D02*
X192050000Y-96900000D01*
X185750000Y-99650000D02*
X189300000Y-99650000D01*
X191050000Y-95900000D02*
X191050000Y-91449999D01*
X192050000Y-96900000D02*
X191050000Y-95900000D01*
%TO.N,3V3*%
X142600000Y-86450000D02*
X142600000Y-88600000D01*
X139950000Y-83800000D02*
X142600000Y-86450000D01*
X126420000Y-31350000D02*
X118800000Y-38970000D01*
X118800000Y-38970000D02*
X118800000Y-46900000D01*
%TO.N,GPIO18*%
X117500000Y-66700000D02*
X144750000Y-93950000D01*
X117500000Y-37730000D02*
X117500000Y-66700000D01*
X123880000Y-31350000D02*
X117500000Y-37730000D01*
%TO.N,GPIO17*%
X148350000Y-100800000D02*
X150050000Y-99100000D01*
X131000000Y-100800000D02*
X148350000Y-100800000D01*
X127600000Y-98000000D02*
X128200000Y-98000000D01*
X128200000Y-98000000D02*
X131000000Y-100800000D01*
%TO.N,GPIO4*%
X149400000Y-89100000D02*
X151150000Y-90850000D01*
X149400000Y-85100000D02*
X149400000Y-89100000D01*
%TO.N,GPIO5*%
X137100000Y-96150000D02*
X142700000Y-96150000D01*
X135350000Y-97900000D02*
X137100000Y-96150000D01*
%TO.N,GPIO2*%
X161350000Y-70250000D02*
X156350000Y-70250000D01*
X170950000Y-79850000D02*
X161350000Y-70250000D01*
X167750000Y-91050000D02*
X170950000Y-87850000D01*
X170950000Y-87850000D02*
X170950000Y-79850000D01*
%TO.N,GPIO15*%
X146150000Y-76100000D02*
X146150000Y-93350000D01*
X173800000Y-48450000D02*
X146150000Y-76100000D01*
X173800000Y-33050000D02*
X173800000Y-48450000D01*
%TO.N,Net-(U2-EN)*%
X159700000Y-101100000D02*
X149800000Y-91200000D01*
X174100000Y-101100000D02*
X159700000Y-101100000D01*
%TO.N,GND*%
X172850000Y-88000000D02*
X172700000Y-87850000D01*
X176875000Y-92025000D02*
X172850000Y-88000000D01*
X187335000Y-92025000D02*
X176875000Y-92025000D01*
%TO.N,Net-(U2-GPIO0{slash}BOOT)*%
X156050000Y-117250000D02*
X152750000Y-117250000D01*
X161450000Y-111850000D02*
X156050000Y-117250000D01*
%TO.N,GPIO16*%
X149800000Y-97950000D02*
X150050000Y-97700000D01*
X138550000Y-97950000D02*
X149800000Y-97950000D01*
%TO.N,GPIO7*%
X149552500Y-94997500D02*
X149750000Y-94800000D01*
X125890000Y-94997500D02*
X149552500Y-94997500D01*
X123340000Y-92447500D02*
X125890000Y-94997500D01*
%TO.N,3V3*%
X144262500Y-118450000D02*
X171550000Y-118450000D01*
X118260000Y-92447500D02*
X144262500Y-118450000D01*
%TO.N,GND*%
X187335000Y-92025000D02*
X190474999Y-92025000D01*
X190474999Y-92025000D02*
X191050000Y-91449999D01*
X191050000Y-101350001D02*
X187910001Y-101350001D01*
X187910001Y-101350001D02*
X187335000Y-100775000D01*
%TD*%
M02*
