%TF.GenerationSoftware,KiCad,Pcbnew,10.0.0*%
%TF.CreationDate,2026-04-09T18:24:32-07:00*%
%TF.ProjectId,v1,76312e6b-6963-4616-945f-706362585858,rev?*%
%TF.SameCoordinates,Original*%
%TF.FileFunction,Soldermask,Bot*%
%TF.FilePolarity,Negative*%
%FSLAX46Y46*%
G04 Gerber Fmt 4.6, Leading zero omitted, Abs format (unit mm)*
G04 Created by KiCad (PCBNEW 10.0.0) date 2026-04-09 18:24:32*
%MOMM*%
%LPD*%
G01*
G04 APERTURE LIST*
G04 Aperture macros list*
%AMRoundRect*
0 Rectangle with rounded corners*
0 $1 Rounding radius*
0 $2 $3 $4 $5 $6 $7 $8 $9 X,Y pos of 4 corners*
0 Add a 4 corners polygon primitive as box body*
4,1,4,$2,$3,$4,$5,$6,$7,$8,$9,$2,$3,0*
0 Add four circle primitives for the rounded corners*
1,1,$1+$1,$2,$3*
1,1,$1+$1,$4,$5*
1,1,$1+$1,$6,$7*
1,1,$1+$1,$8,$9*
0 Add four rect primitives between the rounded corners*
20,1,$1+$1,$2,$3,$4,$5,0*
20,1,$1+$1,$4,$5,$6,$7,0*
20,1,$1+$1,$6,$7,$8,$9,0*
20,1,$1+$1,$8,$9,$2,$3,0*%
G04 Aperture macros list end*
%ADD10R,1.700000X1.700000*%
%ADD11C,1.700000*%
%ADD12C,3.200000*%
%ADD13C,3.000000*%
%ADD14RoundRect,0.102000X-0.754000X-0.754000X0.754000X-0.754000X0.754000X0.754000X-0.754000X0.754000X0*%
%ADD15C,1.712000*%
%ADD16R,2.000000X1.200000*%
%ADD17O,2.000000X1.200000*%
G04 APERTURE END LIST*
D10*
%TO.C,L1*%
X128960000Y-31350000D03*
D11*
X126420000Y-31350000D03*
X123880000Y-31350000D03*
X121340000Y-31350000D03*
X118800000Y-31350000D03*
X116260000Y-31350000D03*
X113720000Y-31350000D03*
X111180000Y-31350000D03*
%TD*%
D10*
%TO.C,T1*%
X171260000Y-33050000D03*
D11*
X173800000Y-33050000D03*
X176339999Y-33050000D03*
%TD*%
D12*
%TO.C,H3*%
X100000000Y-32000000D03*
%TD*%
%TO.C,H1*%
X100020000Y-122000000D03*
%TD*%
D13*
%TO.C,DS1*%
X106320000Y-93147500D03*
X106320000Y-122847500D03*
X137820000Y-93147500D03*
X137820000Y-122847500D03*
D14*
X118260000Y-92447500D03*
D15*
X120800000Y-92447500D03*
X123340000Y-92447500D03*
X125880000Y-92447500D03*
%TD*%
D12*
%TO.C,H4*%
X191000000Y-32000000D03*
%TD*%
%TO.C,H2*%
X191000000Y-122000000D03*
%TD*%
D16*
%TO.C,U1*%
X146430000Y-118410000D03*
D17*
X146430000Y-115870000D03*
X146430000Y-113330001D03*
X146430000Y-110790000D03*
X146430000Y-108250000D03*
X146430000Y-105710000D03*
X146430000Y-103170000D03*
X146430000Y-100629999D03*
X146430000Y-98090000D03*
X146430000Y-95550000D03*
X146430000Y-93010000D03*
X146430000Y-90470001D03*
X146430000Y-87930000D03*
X146430000Y-85390000D03*
X146430000Y-82850000D03*
X146430000Y-80310001D03*
X146430000Y-77769999D03*
X146430000Y-75230000D03*
X146430000Y-72690000D03*
X146426320Y-70152720D03*
X146426320Y-67612720D03*
X146426320Y-65072720D03*
X169290000Y-65070000D03*
X169290001Y-67610000D03*
X169290000Y-70150000D03*
X169290000Y-72690000D03*
X169290000Y-75230000D03*
X169290000Y-77769999D03*
X169290000Y-80310001D03*
X169290000Y-82850000D03*
X169290000Y-85390000D03*
X169290000Y-87930000D03*
X169290000Y-90470001D03*
X169290000Y-93010000D03*
X169290000Y-95550000D03*
X169290000Y-98090000D03*
X169290000Y-100629999D03*
X169290000Y-103170000D03*
X169290000Y-105710000D03*
X169290000Y-108250000D03*
X169290000Y-110790000D03*
X169290000Y-113330001D03*
X169290000Y-115870000D03*
X169290000Y-118410000D03*
%TD*%
M02*
