%TF.GenerationSoftware,KiCad,Pcbnew,10.0.0*%
%TF.CreationDate,2026-04-03T20:48:40-07:00*%
%TF.ProjectId,v1,76312e6b-6963-4616-945f-706362585858,rev?*%
%TF.SameCoordinates,Original*%
%TF.FileFunction,Soldermask,Top*%
%TF.FilePolarity,Negative*%
%FSLAX46Y46*%
G04 Gerber Fmt 4.6, Leading zero omitted, Abs format (unit mm)*
G04 Created by KiCad (PCBNEW 10.0.0) date 2026-04-03 20:48:40*
%MOMM*%
%LPD*%
G01*
G04 APERTURE LIST*
G04 Aperture macros list*
%AMRoundRect*
0 Rectangle with rounded corners*
0 $1 Rounding radius*
0 $2 $3 $4 $5 $6 $7 $8 $9 X,Y pos of 4 corners*
0 Add a 4 corners polygon primitive as box body*
4,1,4,$2,$3,$4,$5,$6,$7,$8,$9,$2,$3,0*
0 Add four circle primitives for the rounded corners*
1,1,$1+$1,$2,$3*
1,1,$1+$1,$4,$5*
1,1,$1+$1,$6,$7*
1,1,$1+$1,$8,$9*
0 Add four rect primitives between the rounded corners*
20,1,$1+$1,$2,$3,$4,$5,0*
20,1,$1+$1,$4,$5,$6,$7,0*
20,1,$1+$1,$6,$7,$8,$9,0*
20,1,$1+$1,$8,$9,$2,$3,0*%
G04 Aperture macros list end*
%ADD10C,3.200000*%
%ADD11R,1.200000X2.000000*%
%ADD12O,1.200000X2.000000*%
%ADD13RoundRect,0.102000X-0.754000X-0.754000X0.754000X-0.754000X0.754000X0.754000X-0.754000X0.754000X0*%
%ADD14C,1.712000*%
%ADD15C,3.204000*%
%ADD16R,1.700000X1.700000*%
%ADD17C,1.700000*%
G04 APERTURE END LIST*
D10*
%TO.C,H3*%
X100353169Y-31971257D03*
%TD*%
D11*
%TO.C,U1*%
X108410000Y-107610000D03*
D12*
X110950000Y-107610000D03*
X113489999Y-107610000D03*
X116030000Y-107610000D03*
X118570000Y-107610000D03*
X121110000Y-107610000D03*
X123650000Y-107610000D03*
X126190001Y-107610000D03*
X128730000Y-107610000D03*
X131270000Y-107610000D03*
X133810000Y-107610000D03*
X136349999Y-107610000D03*
X138890000Y-107610000D03*
X141430000Y-107610000D03*
X143970000Y-107610000D03*
X146509999Y-107610000D03*
X149050001Y-107610000D03*
X151590000Y-107610000D03*
X154130000Y-107610000D03*
X156667280Y-107613680D03*
X159207280Y-107613680D03*
X161747280Y-107613680D03*
X161750000Y-84750000D03*
X159210000Y-84749999D03*
X156670000Y-84750000D03*
X154130000Y-84750000D03*
X151590000Y-84750000D03*
X149050001Y-84750000D03*
X146509999Y-84750000D03*
X143970000Y-84750000D03*
X141430000Y-84750000D03*
X138890000Y-84750000D03*
X136349999Y-84750000D03*
X133810000Y-84750000D03*
X131270000Y-84750000D03*
X128730000Y-84750000D03*
X126190001Y-84750000D03*
X123650000Y-84750000D03*
X121110000Y-84750000D03*
X118570000Y-84750000D03*
X116030000Y-84750000D03*
X113489999Y-84750000D03*
X110950000Y-84750000D03*
X108410000Y-84750000D03*
%TD*%
D10*
%TO.C,H1*%
X100603169Y-115471257D03*
%TD*%
%TO.C,H4*%
X174853169Y-31971257D03*
%TD*%
D13*
%TO.C,U2*%
X134440000Y-38000000D03*
D14*
X136979999Y-38000000D03*
X139520001Y-38000000D03*
X142060000Y-38000000D03*
D15*
X127250000Y-38500000D03*
X149250000Y-38500000D03*
X149250000Y-60500000D03*
X127250000Y-60500000D03*
%TD*%
D10*
%TO.C,H2*%
X174853169Y-115721257D03*
%TD*%
D16*
%TO.C,J1*%
X108653170Y-73246257D03*
D17*
X108653170Y-70706257D03*
X111193170Y-73246257D03*
X111193170Y-70706257D03*
X113733169Y-73246257D03*
X113733170Y-70706257D03*
X116273170Y-73246257D03*
X116273170Y-70706257D03*
X118813170Y-73246257D03*
X118813170Y-70706257D03*
X121353170Y-73246257D03*
X121353170Y-70706257D03*
X123893170Y-73246257D03*
X123893170Y-70706257D03*
X126433171Y-73246257D03*
X126433170Y-70706257D03*
X128973170Y-73246257D03*
X128973170Y-70706257D03*
X131513170Y-73246257D03*
X131513170Y-70706257D03*
X134053170Y-73246257D03*
X134053170Y-70706257D03*
X136593169Y-73246257D03*
X136593170Y-70706257D03*
X139133170Y-73246257D03*
X139133170Y-70706257D03*
X141673170Y-73246257D03*
X141673170Y-70706257D03*
X144213170Y-73246257D03*
X144213170Y-70706257D03*
X146753169Y-73246257D03*
X146753170Y-70706257D03*
X149293171Y-73246257D03*
X149293170Y-70706257D03*
X151833170Y-73246257D03*
X151833170Y-70706257D03*
X154373170Y-73246257D03*
X154373170Y-70706257D03*
X156913170Y-73246257D03*
X156913170Y-70706257D03*
X159453169Y-73246257D03*
X159453170Y-70706257D03*
X161993170Y-73246257D03*
X161993170Y-70706257D03*
%TD*%
M02*
