%TF.GenerationSoftware,KiCad,Pcbnew,10.0.0*%
%TF.CreationDate,2026-04-10T13:21:52-07:00*%
%TF.ProjectId,v1,76312e6b-6963-4616-945f-706362585858,rev?*%
%TF.SameCoordinates,Original*%
%TF.FileFunction,Paste,Top*%
%TF.FilePolarity,Positive*%
%FSLAX46Y46*%
G04 Gerber Fmt 4.6, Leading zero omitted, Abs format (unit mm)*
G04 Created by KiCad (PCBNEW 10.0.0) date 2026-04-10 13:21:52*
%MOMM*%
%LPD*%
G01*
G04 APERTURE LIST*
%ADD10R,0.660400X1.041400*%
%ADD11R,1.041400X0.660400*%
%ADD12R,1.500000X0.900000*%
%ADD13R,0.900000X1.500000*%
%ADD14R,0.900000X0.900000*%
%ADD15R,1.450000X0.900001*%
%ADD16R,1.450000X3.149999*%
%ADD17R,0.508000X0.660400*%
%ADD18R,0.660400X0.508000*%
%ADD19R,0.900000X0.300000*%
%ADD20R,0.914400X0.889000*%
G04 APERTURE END LIST*
D10*
%TO.C,SW2*%
X176624999Y-59875000D03*
X176624999Y-64025000D03*
X174475001Y-64025000D03*
X174475001Y-59875000D03*
%TD*%
D11*
%TO.C,SW1*%
X166000001Y-121800000D03*
X170150001Y-121800000D03*
X170150001Y-123950000D03*
X166000001Y-123950000D03*
%TD*%
D12*
%TO.C,U2*%
X152750000Y-87240000D03*
X152750000Y-88510000D03*
X152750000Y-89780000D03*
X152750000Y-91050000D03*
X152750000Y-92320000D03*
X152750000Y-93590000D03*
X152750000Y-94860000D03*
X152750000Y-96130000D03*
X152750000Y-97400000D03*
X152750000Y-98670000D03*
X152750000Y-99940000D03*
X152750000Y-101210000D03*
X152750000Y-102480000D03*
X152750000Y-103750000D03*
D13*
X154515000Y-105000000D03*
X155785000Y-105000000D03*
X157055000Y-105000000D03*
X158325000Y-105000000D03*
X159595000Y-105000000D03*
X160865000Y-105000000D03*
X162135000Y-105000000D03*
X163405000Y-105000000D03*
X164675000Y-105000000D03*
X165945000Y-105000000D03*
X167215000Y-105000000D03*
X168485000Y-105000000D03*
D12*
X170250000Y-103750000D03*
X170250000Y-102480000D03*
X170250000Y-101210000D03*
X170250000Y-99940000D03*
X170250000Y-98670000D03*
X170250000Y-97400000D03*
X170250000Y-96130000D03*
X170250000Y-94860000D03*
X170250000Y-93590000D03*
X170250000Y-92320000D03*
X170250000Y-91050000D03*
X170250000Y-89780000D03*
X170250000Y-88510000D03*
X170250000Y-87240000D03*
D14*
X158600000Y-93560000D03*
X158600000Y-94960000D03*
X158600000Y-96360000D03*
X158600000Y-96360000D03*
X160000000Y-93560000D03*
X160000000Y-93560000D03*
X160000000Y-94960000D03*
X160000000Y-96360000D03*
X161400000Y-93560000D03*
X161400000Y-94960000D03*
X161400000Y-96360000D03*
%TD*%
D15*
%TO.C,U1*%
X182950000Y-112000000D03*
X182950000Y-109700000D03*
X182950000Y-107400000D03*
D16*
X176800000Y-109700000D03*
%TD*%
D17*
%TO.C,R2*%
X189350000Y-109608800D03*
X189350000Y-108491200D03*
%TD*%
D18*
%TO.C,R1*%
X189032400Y-87850000D03*
X190150000Y-87850000D03*
%TD*%
D19*
%TO.C,J1*%
X187360000Y-99025000D03*
X188460000Y-93775000D03*
X187360000Y-98525000D03*
X187359999Y-98025000D03*
X187360000Y-97525000D03*
X187360000Y-97025000D03*
X187360000Y-96525000D03*
X187360000Y-96025000D03*
X187360000Y-95525001D03*
X187360000Y-95025000D03*
X187360000Y-94525000D03*
X187360000Y-94024999D03*
X187360000Y-93525000D03*
X188460000Y-94275001D03*
X188460000Y-94775000D03*
X188460000Y-95274999D03*
X188460000Y-95775000D03*
X188460000Y-96275000D03*
X188459999Y-96775000D03*
X188460000Y-97275000D03*
X188460000Y-97775000D03*
X188460000Y-98275000D03*
X188460000Y-98775000D03*
X188459999Y-99275000D03*
%TD*%
D20*
%TO.C,C2*%
X171049300Y-113000000D03*
X169550700Y-113000000D03*
%TD*%
%TO.C,C1*%
X177449300Y-118450000D03*
X175950700Y-118450000D03*
%TD*%
M02*
