%TF.GenerationSoftware,KiCad,Pcbnew,10.0.0*%
%TF.CreationDate,2026-04-10T13:21:52-07:00*%
%TF.ProjectId,v1,76312e6b-6963-4616-945f-706362585858,rev?*%
%TF.SameCoordinates,Original*%
%TF.FileFunction,Copper,L1,Top*%
%TF.FilePolarity,Positive*%
%FSLAX46Y46*%
G04 Gerber Fmt 4.6, Leading zero omitted, Abs format (unit mm)*
G04 Created by KiCad (PCBNEW 10.0.0) date 2026-04-10 13:21:52*
%MOMM*%
%LPD*%
G01*
G04 APERTURE LIST*
%TA.AperFunction,SMDPad,CuDef*%
%ADD10R,0.660400X1.041400*%
%TD*%
%TA.AperFunction,SMDPad,CuDef*%
%ADD11R,1.041400X0.660400*%
%TD*%
%TA.AperFunction,ComponentPad*%
%ADD12C,1.600000*%
%TD*%
%TA.AperFunction,SMDPad,CuDef*%
%ADD13R,1.500000X0.900000*%
%TD*%
%TA.AperFunction,SMDPad,CuDef*%
%ADD14R,0.900000X1.500000*%
%TD*%
%TA.AperFunction,SMDPad,CuDef*%
%ADD15R,0.900000X0.900000*%
%TD*%
%TA.AperFunction,SMDPad,CuDef*%
%ADD16R,1.450000X0.900001*%
%TD*%
%TA.AperFunction,SMDPad,CuDef*%
%ADD17R,1.450000X3.149999*%
%TD*%
%TA.AperFunction,SMDPad,CuDef*%
%ADD18R,0.508000X0.660400*%
%TD*%
%TA.AperFunction,SMDPad,CuDef*%
%ADD19R,0.660400X0.508000*%
%TD*%
%TA.AperFunction,ComponentPad*%
%ADD20O,1.050000X1.700000*%
%TD*%
%TA.AperFunction,ComponentPad*%
%ADD21O,2.800000X1.100000*%
%TD*%
%TA.AperFunction,SMDPad,CuDef*%
%ADD22R,0.900000X0.300000*%
%TD*%
%TA.AperFunction,SMDPad,CuDef*%
%ADD23R,0.914400X0.889000*%
%TD*%
%TA.AperFunction,ComponentPad*%
%ADD24R,1.700000X1.700000*%
%TD*%
%TA.AperFunction,ComponentPad*%
%ADD25C,1.700000*%
%TD*%
%TA.AperFunction,ComponentPad*%
%ADD26R,1.508000X1.508000*%
%TD*%
%TA.AperFunction,ComponentPad*%
%ADD27C,1.508000*%
%TD*%
%TA.AperFunction,ViaPad*%
%ADD28C,0.600000*%
%TD*%
%TA.AperFunction,Conductor*%
%ADD29C,0.200000*%
%TD*%
G04 APERTURE END LIST*
D10*
%TO.P,SW2,3,3_3*%
%TO.N,GND*%
X176624999Y-59875000D03*
%TO.P,SW2,4,4_4*%
X176624999Y-64025000D03*
%TO.P,SW2,2,2_2*%
%TO.N,EN*%
X174475001Y-64025000D03*
%TO.P,SW2,1,1_1*%
X174475001Y-59875000D03*
%TD*%
D11*
%TO.P,SW1,3,3_3*%
%TO.N,GND*%
X166000001Y-121800000D03*
%TO.P,SW1,4,4_4*%
X170150001Y-121800000D03*
%TO.P,SW1,2,2_2*%
%TO.N,BOOT*%
X170150001Y-123950000D03*
%TO.P,SW1,1,1_1*%
X166000001Y-123950000D03*
%TD*%
D12*
%TO.P,R4,2*%
%TO.N,BOOT*%
X160580000Y-123350000D03*
%TO.P,R4,1*%
%TO.N,Net-(U2-GPIO0{slash}BOOT)*%
X150420000Y-123350000D03*
%TD*%
%TO.P,R3,2*%
%TO.N,Net-(U2-EN)*%
X183550000Y-65360000D03*
%TO.P,R3,1*%
%TO.N,EN*%
X183550000Y-55200000D03*
%TD*%
D13*
%TO.P,U2,1,GND_1*%
%TO.N,GND*%
X152750000Y-87240000D03*
%TO.P,U2,2,3V3_2*%
%TO.N,3V3*%
X152750000Y-88510000D03*
%TO.P,U2,3,EN_3*%
%TO.N,Net-(U2-EN)*%
X152750000Y-89780000D03*
%TO.P,U2,4,GPIO4/TOUCH4/ADC1_CH3_4*%
%TO.N,GPIO4*%
X152750000Y-91050000D03*
%TO.P,U2,5,GPIO5/TOUCH5/ADC1_CH4_5*%
%TO.N,GPIO5*%
X152750000Y-92320000D03*
%TO.P,U2,6,GPIO6/TOUCH6/ADC1_CH5_6*%
%TO.N,unconnected-(U2-GPIO6{slash}TOUCH6{slash}ADC1_CH5-Pad6)*%
X152750000Y-93590000D03*
%TO.P,U2,7,GPIO7/TOUCH7/ADC1_CH6_7*%
%TO.N,GPIO7*%
X152750000Y-94860000D03*
%TO.P,U2,8,GPIO15/U0RTS/ADC2_CH4/XTAL_32K_P_8*%
%TO.N,GPIO15*%
X152750000Y-96130000D03*
%TO.P,U2,9,GPIO16/U0CTS/ADC2_CH5/XTAL_32K_N_9*%
%TO.N,GPIO16*%
X152750000Y-97400000D03*
%TO.P,U2,10,GPIO17/U1TXD/ADC2_CH6_10*%
%TO.N,GPIO17*%
X152750000Y-98670000D03*
%TO.P,U2,11,GPIO18/U1RXD/ADC2_CH7/CLK_OUT3_11*%
%TO.N,GPIO18*%
X152750000Y-99940000D03*
%TO.P,U2,12,GPIO8/TOUCH8/ADC1_CH7/SUBSPICS1_12*%
%TO.N,unconnected-(U2-GPIO8{slash}TOUCH8{slash}ADC1_CH7{slash}SUBSPICS1-Pad12)*%
X152750000Y-101210000D03*
%TO.P,U2,13,GPIO19/U1RTS/ADC2_CH8/CLK_OUT2/USB_D-_13*%
%TO.N,D-*%
X152750000Y-102480000D03*
%TO.P,U2,14,GPIO20/U1CTS/ADC2_CH9/CLK_OUT1/USB_D+_14*%
%TO.N,D+*%
X152750000Y-103750000D03*
D14*
%TO.P,U2,15,GPIO3/TOUCH3/ADC1_CH2_15*%
%TO.N,unconnected-(U2-GPIO3{slash}TOUCH3{slash}ADC1_CH2-Pad15)*%
X154515000Y-105000000D03*
%TO.P,U2,16,GPIO46_16*%
%TO.N,unconnected-(U2-GPIO46-Pad16)*%
X155785000Y-105000000D03*
%TO.P,U2,17,GPIO9/TOUCH9/ADC1_CH8/FSPIHD/SUBSPIHD_17*%
%TO.N,unconnected-(U2-GPIO9{slash}TOUCH9{slash}ADC1_CH8{slash}FSPIHD{slash}SUBSPIHD-Pad17)*%
X157055000Y-105000000D03*
%TO.P,U2,18,GPIO10/TOUCH10/ADC1_CH9/FSPICS0/FSPIIO4/SUBSPICS0_18*%
%TO.N,unconnected-(U2-GPIO10{slash}TOUCH10{slash}ADC1_CH9{slash}FSPICS0{slash}FSPIIO4{slash}SUBSPICS0-Pad18)*%
X158325000Y-105000000D03*
%TO.P,U2,19,GPIO11/TOUCH11/ADC2_CH0/FSPID/FSPIIO5/SUBSPID_19*%
%TO.N,unconnected-(U2-GPIO11{slash}TOUCH11{slash}ADC2_CH0{slash}FSPID{slash}FSPIIO5{slash}SUBSPID-Pad19)*%
X159595000Y-105000000D03*
%TO.P,U2,20,GPIO12/TOUCH12/ADC2_CH1/FSPICLK/FSPIIO6/SUBSPICLK_20*%
%TO.N,unconnected-(U2-GPIO12{slash}TOUCH12{slash}ADC2_CH1{slash}FSPICLK{slash}FSPIIO6{slash}SUBSPICLK-Pad20)*%
X160865000Y-105000000D03*
%TO.P,U2,21,GPIO13/TOUCH13/ADC2_CH2/FSPIQ/FSPIIO7/SUBSPIQ_21*%
%TO.N,unconnected-(U2-GPIO13{slash}TOUCH13{slash}ADC2_CH2{slash}FSPIQ{slash}FSPIIO7{slash}SUBSPIQ-Pad21)*%
X162135000Y-105000000D03*
%TO.P,U2,22,GPIO14/TOUCH14/ADC2_CH3/FSPIWP/FSPIDQS/SUBSPIWP_22*%
%TO.N,unconnected-(U2-GPIO14{slash}TOUCH14{slash}ADC2_CH3{slash}FSPIWP{slash}FSPIDQS{slash}SUBSPIWP-Pad22)*%
X163405000Y-105000000D03*
%TO.P,U2,23,GPIO21_23*%
%TO.N,unconnected-(U2-GPIO21-Pad23)*%
X164675000Y-105000000D03*
%TO.P,U2,24,GPIO47/SPICLK_P/SUBSPICLK_P_DIFF_24*%
%TO.N,unconnected-(U2-GPIO47{slash}SPICLK_P{slash}SUBSPICLK_P_DIFF-Pad24)*%
X165945000Y-105000000D03*
%TO.P,U2,25,GPIO48/SPICLK_N/SUBSPICLK_N_DIFF_25*%
%TO.N,unconnected-(U2-GPIO48{slash}SPICLK_N{slash}SUBSPICLK_N_DIFF-Pad25)*%
X167215000Y-105000000D03*
%TO.P,U2,26,GPIO45_26*%
%TO.N,unconnected-(U2-GPIO45-Pad26)*%
X168485000Y-105000000D03*
D13*
%TO.P,U2,27,GPIO0/BOOT_27*%
%TO.N,Net-(U2-GPIO0{slash}BOOT)*%
X170250000Y-103750000D03*
%TO.P,U2,28,SPIIO6/GPIO35/FSPID/SUBSPID_28*%
%TO.N,unconnected-(U2-SPIIO6{slash}GPIO35{slash}FSPID{slash}SUBSPID-Pad28)*%
X170250000Y-102480000D03*
%TO.P,U2,29,SPIIO7/GPIO36/FSPICLK/SUBSPICLK_29*%
%TO.N,unconnected-(U2-SPIIO7{slash}GPIO36{slash}FSPICLK{slash}SUBSPICLK-Pad29)*%
X170250000Y-101210000D03*
%TO.P,U2,30,SPIDQS/GPIO37/FSPIQ/SUBSPIQ_30*%
%TO.N,unconnected-(U2-SPIDQS{slash}GPIO37{slash}FSPIQ{slash}SUBSPIQ-Pad30)*%
X170250000Y-99940000D03*
%TO.P,U2,31,GPIO38/FSPIWP/SUBSPIWP_31*%
%TO.N,unconnected-(U2-GPIO38{slash}FSPIWP{slash}SUBSPIWP-Pad31)*%
X170250000Y-98670000D03*
%TO.P,U2,32,MTCK/GPIO39/CLK_OUT3/SUBSPICS1_32*%
%TO.N,unconnected-(U2-MTCK{slash}GPIO39{slash}CLK_OUT3{slash}SUBSPICS1-Pad32)*%
X170250000Y-97400000D03*
%TO.P,U2,33,MTDO/GPIO40/CLK_OUT2_33*%
%TO.N,unconnected-(U2-MTDO{slash}GPIO40{slash}CLK_OUT2-Pad33)*%
X170250000Y-96130000D03*
%TO.P,U2,34,MTDI/GPIO41/CLK_OUT1_34*%
%TO.N,unconnected-(U2-MTDI{slash}GPIO41{slash}CLK_OUT1-Pad34)*%
X170250000Y-94860000D03*
%TO.P,U2,35,MTMS/GPIO42_35*%
%TO.N,unconnected-(U2-MTMS{slash}GPIO42-Pad35)*%
X170250000Y-93590000D03*
%TO.P,U2,36,U0RXD/GPIO44/CLK_OUT2_36*%
%TO.N,unconnected-(U2-U0RXD{slash}GPIO44{slash}CLK_OUT2-Pad36)*%
X170250000Y-92320000D03*
%TO.P,U2,37,U0TXD/GPIO43/CLK_OUT1_37*%
%TO.N,unconnected-(U2-U0TXD{slash}GPIO43{slash}CLK_OUT1-Pad37)*%
X170250000Y-91050000D03*
%TO.P,U2,38,GPIO2/TOUCH2/ADC1_CH1_38*%
%TO.N,GPIO2*%
X170250000Y-89780000D03*
%TO.P,U2,39,GPIO1/TOUCH1/ADC1_CH0_39*%
%TO.N,unconnected-(U2-GPIO1{slash}TOUCH1{slash}ADC1_CH0-Pad39)*%
X170250000Y-88510000D03*
%TO.P,U2,40,GND_40*%
%TO.N,GND*%
X170250000Y-87240000D03*
D15*
%TO.P,U2,41,GND_41*%
X158600000Y-93560000D03*
X158600000Y-94960000D03*
X158600000Y-96360000D03*
X158600000Y-96360000D03*
X160000000Y-93560000D03*
X160000000Y-93560000D03*
X160000000Y-94960000D03*
X160000000Y-96360000D03*
X161400000Y-93560000D03*
X161400000Y-94960000D03*
X161400000Y-96360000D03*
%TD*%
D16*
%TO.P,U1,1,GND_1*%
%TO.N,GND*%
X182950000Y-112000000D03*
%TO.P,U1,2,OUTPUT_2*%
%TO.N,Net-(C1-Pad1)*%
X182950000Y-109700000D03*
%TO.P,U1,3,IN_3*%
%TO.N,VBUS*%
X182950000Y-107400000D03*
D17*
%TO.P,U1,4,OUTPUT_4*%
%TO.N,Net-(C2-Pad1)*%
X176800000Y-109700000D03*
%TD*%
D18*
%TO.P,R2,1*%
%TO.N,GND*%
X189350000Y-109608800D03*
%TO.P,R2,2*%
%TO.N,Net-(J1-CC2)*%
X189350000Y-108491200D03*
%TD*%
D19*
%TO.P,R1,1*%
%TO.N,Net-(J1-CC1)*%
X189032400Y-87850000D03*
%TO.P,R1,2*%
%TO.N,GND*%
X190150000Y-87850000D03*
%TD*%
D20*
%TO.P,J1,SH1,SHIELD_SH1*%
%TO.N,GND*%
X187335000Y-100775000D03*
D21*
%TO.P,J1,SH3,SHIELD_SH3*%
X191050000Y-101350001D03*
D20*
%TO.P,J1,SH2,SHIELD_SH2*%
X187335000Y-92025000D03*
D21*
%TO.P,J1,SH4,SHIELD_SH4*%
X191050000Y-91449999D03*
D22*
%TO.P,J1,A1,GND_A_A1*%
X187360000Y-99025000D03*
%TO.P,J1,B1,GND_B_B1*%
X188460000Y-93775000D03*
%TO.P,J1,A2,TX1+_A2*%
%TO.N,unconnected-(J1-TX1+-PadA2)*%
X187360000Y-98525000D03*
%TO.P,J1,A3,TX1-_A3*%
%TO.N,unconnected-(J1-TX1--PadA3)*%
X187359999Y-98025000D03*
%TO.P,J1,A4,VBUS_A_A4*%
%TO.N,VBUS*%
X187360000Y-97525000D03*
%TO.P,J1,A5,CC1_A5*%
%TO.N,Net-(J1-CC1)*%
X187360000Y-97025000D03*
%TO.P,J1,A6,D1+_A6*%
%TO.N,D+*%
X187360000Y-96525000D03*
%TO.P,J1,A7,D1-_A7*%
%TO.N,D-*%
X187360000Y-96025000D03*
%TO.P,J1,A8,SBU1_A8*%
%TO.N,unconnected-(J1-SBU1-PadA8)*%
X187360000Y-95525001D03*
%TO.P,J1,A9,VBUS_A_A9*%
%TO.N,VBUS*%
X187360000Y-95025000D03*
%TO.P,J1,A10,RX2-_A10*%
%TO.N,unconnected-(J1-RX2--PadA10)*%
X187360000Y-94525000D03*
%TO.P,J1,A11,RX2+_A11*%
%TO.N,unconnected-(J1-RX2+-PadA11)*%
X187360000Y-94024999D03*
%TO.P,J1,A12,GND_A_A12*%
%TO.N,GND*%
X187360000Y-93525000D03*
%TO.P,J1,B2,TX2+_B2*%
%TO.N,unconnected-(J1-TX2+-PadB2)*%
X188460000Y-94275001D03*
%TO.P,J1,B3,TX2-_B3*%
%TO.N,unconnected-(J1-TX2--PadB3)*%
X188460000Y-94775000D03*
%TO.P,J1,B4,VBUS_B_B4*%
%TO.N,VBUS_B*%
X188460000Y-95274999D03*
%TO.P,J1,B5,CC2_B5*%
%TO.N,Net-(J1-CC2)*%
X188460000Y-95775000D03*
%TO.P,J1,B6,D2+_B6*%
%TO.N,unconnected-(J1-D2+-PadB6)*%
X188460000Y-96275000D03*
%TO.P,J1,B7,D2-_B7*%
%TO.N,unconnected-(J1-D2--PadB7)*%
X188459999Y-96775000D03*
%TO.P,J1,B8,SBU2_B8*%
%TO.N,unconnected-(J1-SBU2-PadB8)*%
X188460000Y-97275000D03*
%TO.P,J1,B9,VBUS_B_B9*%
%TO.N,VBUS_B*%
X188460000Y-97775000D03*
%TO.P,J1,B10,RX1-_B10*%
%TO.N,unconnected-(J1-RX1--PadB10)*%
X188460000Y-98275000D03*
%TO.P,J1,B11,RX1+_B11*%
%TO.N,unconnected-(J1-RX1+-PadB11)*%
X188460000Y-98775000D03*
%TO.P,J1,B12,GND_B_B12*%
%TO.N,GND*%
X188459999Y-99275000D03*
%TD*%
D23*
%TO.P,C2,1*%
%TO.N,Net-(C2-Pad1)*%
X171049300Y-113000000D03*
%TO.P,C2,2*%
%TO.N,3V3*%
X169550700Y-113000000D03*
%TD*%
%TO.P,C1,1*%
%TO.N,Net-(C1-Pad1)*%
X177449300Y-118450000D03*
%TO.P,C1,2*%
%TO.N,3V3*%
X175950700Y-118450000D03*
%TD*%
D24*
%TO.P,T1,1,GND_1*%
%TO.N,GND*%
X171260000Y-33050000D03*
D25*
%TO.P,T1,2,IO_2*%
%TO.N,GPIO15*%
X173800000Y-33050000D03*
%TO.P,T1,3,VCC_3*%
%TO.N,3V3*%
X176339999Y-33050000D03*
%TD*%
D24*
%TO.P,L1,1,GND_1*%
%TO.N,GND*%
X128960000Y-31350000D03*
D25*
%TO.P,L1,2,VCC_2*%
%TO.N,3V3*%
X126420000Y-31350000D03*
%TO.P,L1,3,SCL_3*%
%TO.N,GPIO18*%
X123880000Y-31350000D03*
%TO.P,L1,4,SDA_4*%
%TO.N,GPIO17*%
X121340000Y-31350000D03*
%TO.P,L1,5,RES_5*%
%TO.N,GPIO4*%
X118800000Y-31350000D03*
%TO.P,L1,6,DC_6*%
%TO.N,GPIO2*%
X116260000Y-31350000D03*
%TO.P,L1,7,CS_7*%
%TO.N,GPIO5*%
X113720000Y-31350000D03*
%TO.P,L1,8,BL_8*%
%TO.N,3V3*%
X111180000Y-31350000D03*
%TD*%
D26*
%TO.P,DS1,1,VDD_1*%
%TO.N,3V3*%
X118260000Y-92447500D03*
D27*
%TO.P,DS1,2,GND_2*%
%TO.N,GND*%
X120800000Y-92447500D03*
%TO.P,DS1,3,SCK_3*%
%TO.N,GPIO7*%
X123340000Y-92447500D03*
%TO.P,DS1,4,SDA_4*%
%TO.N,GPIO16*%
X125880000Y-92447500D03*
%TD*%
D28*
%TO.N,D+*%
X160700521Y-99500521D03*
%TO.N,D-*%
X160099479Y-98899479D03*
%TO.N,D+*%
X183199479Y-96300521D03*
%TO.N,D-*%
X183800521Y-95699479D03*
%TO.N,VBUS*%
X185050000Y-103200000D03*
X190350000Y-89850000D03*
%TO.N,VBUS_B*%
X190200000Y-95350000D03*
X189700000Y-97700000D03*
%TO.N,GND*%
X185750000Y-99650000D03*
%TO.N,3V3*%
X142600000Y-88600000D03*
X139950000Y-83800000D03*
X118800000Y-46900000D03*
%TO.N,GPIO18*%
X144750000Y-93950000D03*
%TO.N,GPIO17*%
X150050000Y-99100000D03*
X127600000Y-98000000D03*
%TO.N,GPIO4*%
X151150000Y-90850000D03*
X149400000Y-85100000D03*
%TO.N,GPIO5*%
X142700000Y-96150000D03*
X135350000Y-97900000D03*
%TO.N,GPIO2*%
X156350000Y-70250000D03*
X167750000Y-91050000D03*
%TO.N,GPIO15*%
X146150000Y-93350000D03*
%TO.N,Net-(U2-EN)*%
X149800000Y-91200000D03*
X174100000Y-101100000D03*
%TO.N,GND*%
X172850000Y-88000000D03*
%TO.N,Net-(U2-GPIO0{slash}BOOT)*%
X152750000Y-117250000D03*
X161450000Y-111850000D03*
%TO.N,GPIO16*%
X150050000Y-97700000D03*
X138550000Y-97950000D03*
%TO.N,GPIO7*%
X149750000Y-94800000D03*
%TO.N,3V3*%
X171550000Y-118450000D03*
%TD*%
%TO.N,D+*%
D29*
X154025002Y-103225000D02*
X153500002Y-103750000D01*
X153500002Y-103750000D02*
X152750000Y-103750000D01*
%TO.N,D-*%
X154025002Y-102775000D02*
X153730002Y-102480000D01*
X153730002Y-102480000D02*
X152750000Y-102480000D01*
%TO.N,D+*%
X160700521Y-99500521D02*
X160417678Y-99500521D01*
X160417678Y-99500521D02*
X156693199Y-103225000D01*
X156693199Y-103225000D02*
X154025002Y-103225000D01*
%TO.N,D-*%
X160099479Y-98899479D02*
X160099479Y-99182322D01*
X160099479Y-99182322D02*
X156506801Y-102775000D01*
X156506801Y-102775000D02*
X154025002Y-102775000D01*
X183868199Y-96050000D02*
X183800521Y-95982322D01*
%TO.N,D+*%
X183482322Y-96300521D02*
X183199479Y-96300521D01*
X183681801Y-96500000D02*
X183482322Y-96300521D01*
X186684999Y-96525000D02*
X186659999Y-96500000D01*
%TO.N,D-*%
X186659999Y-96050000D02*
X183868199Y-96050000D01*
%TO.N,D+*%
X187360000Y-96525000D02*
X186684999Y-96525000D01*
%TO.N,D-*%
X187360000Y-96025000D02*
X186684999Y-96025000D01*
%TO.N,D+*%
X186659999Y-96500000D02*
X183681801Y-96500000D01*
%TO.N,D-*%
X186684999Y-96025000D02*
X186659999Y-96050000D01*
X183800521Y-95982322D02*
X183800521Y-95699479D01*
%TO.N,VBUS*%
X185050000Y-103200000D02*
X183084999Y-101234999D01*
X183084999Y-101234999D02*
X182950000Y-101234999D01*
X188018274Y-89850000D02*
X190350000Y-89850000D01*
X186510000Y-91358274D02*
X188018274Y-89850000D01*
X186510000Y-94710000D02*
X186510000Y-91358274D01*
X186825000Y-95025000D02*
X186510000Y-94710000D01*
X187360000Y-95025000D02*
X186825000Y-95025000D01*
%TO.N,VBUS_B*%
X190200000Y-95350000D02*
X190124999Y-95274999D01*
X190124999Y-95274999D02*
X188460000Y-95274999D01*
X189625000Y-97775000D02*
X189700000Y-97700000D01*
X188460000Y-97775000D02*
X189625000Y-97775000D01*
%TO.N,Net-(J1-CC2)*%
X189350000Y-108491200D02*
X190450000Y-107391200D01*
X190450000Y-107391200D02*
X190450000Y-102200001D01*
X190450000Y-102200001D02*
X189847918Y-102200001D01*
X189847918Y-102200001D02*
X189350000Y-101702083D01*
X189350000Y-101702083D02*
X189350000Y-100997919D01*
X189350000Y-100997919D02*
X189847918Y-100500001D01*
X189847918Y-100500001D02*
X190450000Y-100500001D01*
X190450000Y-100500001D02*
X190450000Y-97065000D01*
X190450000Y-97065000D02*
X189160000Y-95775000D01*
X189160000Y-95775000D02*
X188460000Y-95775000D01*
%TO.N,GND*%
X186375000Y-99025000D02*
X185750000Y-99650000D01*
X187360000Y-99025000D02*
X186375000Y-99025000D01*
%TO.N,3V3*%
X140250000Y-92750000D02*
X144225000Y-88775000D01*
X142600000Y-88600000D02*
X142775000Y-88775000D01*
X142775000Y-88775000D02*
X144225000Y-88775000D01*
X139950000Y-83800000D02*
X140050000Y-83900000D01*
X118800000Y-62650000D02*
X139950000Y-83800000D01*
X118800000Y-46900000D02*
X118800000Y-62650000D01*
%TO.N,GPIO18*%
X144750000Y-93950000D02*
X144750000Y-94648529D01*
X144750000Y-94648529D02*
X150041471Y-99940000D01*
X150041471Y-99940000D02*
X152750000Y-99940000D01*
%TO.N,GPIO17*%
X150050000Y-99100000D02*
X150480000Y-98670000D01*
X150480000Y-98670000D02*
X152750000Y-98670000D01*
X127600000Y-98000000D02*
X127700000Y-98000000D01*
X121850000Y-98000000D02*
X127600000Y-98000000D01*
X115110000Y-30873654D02*
X115110000Y-91260000D01*
X115110000Y-91260000D02*
X121850000Y-98000000D01*
X115783654Y-30200000D02*
X115110000Y-30873654D01*
X120190000Y-30200000D02*
X115783654Y-30200000D01*
X121340000Y-31350000D02*
X120190000Y-30200000D01*
%TO.N,GPIO4*%
X151150000Y-90850000D02*
X152550000Y-90850000D01*
X152550000Y-90850000D02*
X152750000Y-91050000D01*
X150450000Y-80950000D02*
X150450000Y-84050000D01*
X118800000Y-31350000D02*
X156950000Y-69500000D01*
X150450000Y-84050000D02*
X149400000Y-85100000D01*
X156950000Y-69500000D02*
X156950000Y-74450000D01*
X156950000Y-74450000D02*
X150450000Y-80950000D01*
%TO.N,GPIO5*%
X142700000Y-96150000D02*
X142700000Y-94750000D01*
X142700000Y-94750000D02*
X145130000Y-92320000D01*
X145130000Y-92320000D02*
X152750000Y-92320000D01*
X134250000Y-99000000D02*
X135350000Y-97900000D01*
X112900000Y-99000000D02*
X134250000Y-99000000D01*
X113720000Y-31350000D02*
X109800000Y-35270000D01*
X109800000Y-35270000D02*
X109800000Y-95900000D01*
X109800000Y-95900000D02*
X112900000Y-99000000D01*
%TO.N,GPIO2*%
X156350000Y-70250000D02*
X155160000Y-70250000D01*
X155160000Y-70250000D02*
X116260000Y-31350000D01*
X169020000Y-89780000D02*
X167750000Y-91050000D01*
X170250000Y-89780000D02*
X169020000Y-89780000D01*
%TO.N,GPIO15*%
X146150000Y-93350000D02*
X148930000Y-96130000D01*
X148930000Y-96130000D02*
X152750000Y-96130000D01*
%TO.N,GND*%
X176624999Y-64025000D02*
X175804299Y-64845700D01*
X175804299Y-64845700D02*
X173844801Y-64845700D01*
X173844801Y-64845700D02*
X171260000Y-62260899D01*
X171260000Y-62260899D02*
X171260000Y-33050000D01*
%TO.N,EN*%
X174475001Y-64025000D02*
X174475001Y-59875000D01*
%TO.N,Net-(U2-EN)*%
X149800000Y-91200000D02*
X151220000Y-89780000D01*
X151220000Y-89780000D02*
X152750000Y-89780000D01*
X174100000Y-93210000D02*
X174100000Y-101100000D01*
X183550000Y-83760000D02*
X174100000Y-93210000D01*
X183550000Y-65360000D02*
X183550000Y-83760000D01*
%TO.N,EN*%
X174475001Y-59875000D02*
X179150001Y-55200000D01*
X179150001Y-55200000D02*
X183550000Y-55200000D01*
%TO.N,GND*%
X176624999Y-64025000D02*
X176624999Y-59875000D01*
X170250000Y-87240000D02*
X176624999Y-80865001D01*
X176624999Y-80865001D02*
X176624999Y-64025000D01*
X172850000Y-88000000D02*
X172090000Y-87240000D01*
X172090000Y-87240000D02*
X170250000Y-87240000D01*
X170150001Y-121800000D02*
X175601000Y-121800000D01*
X175601000Y-121800000D02*
X182950000Y-114451000D01*
X182950000Y-114451000D02*
X182950000Y-112000000D01*
X166000001Y-121800000D02*
X170150001Y-121800000D01*
%TO.N,BOOT*%
X166000001Y-123950000D02*
X170150001Y-123950000D01*
X160580000Y-123350000D02*
X165400001Y-123350000D01*
X165400001Y-123350000D02*
X166000001Y-123950000D01*
%TO.N,Net-(U2-GPIO0{slash}BOOT)*%
X152750000Y-117250000D02*
X150420000Y-119580000D01*
X150420000Y-119580000D02*
X150420000Y-123350000D01*
X163435000Y-111850000D02*
X161450000Y-111850000D01*
X170250000Y-105035000D02*
X163435000Y-111850000D01*
X170250000Y-103750000D02*
X170250000Y-105035000D01*
%TO.N,3V3*%
X112450000Y-28850000D02*
X110200000Y-31100000D01*
X127300000Y-28850000D02*
X112450000Y-28850000D01*
X172139999Y-28850000D02*
X127300000Y-28850000D01*
X110450000Y-31350000D02*
X111180000Y-31350000D01*
X110200000Y-31100000D02*
X110450000Y-31350000D01*
X127300000Y-28850000D02*
X126750000Y-28850000D01*
X176339999Y-33050000D02*
X172139999Y-28850000D01*
X126750000Y-28850000D02*
X126750000Y-29150000D01*
X126750000Y-29150000D02*
X126420000Y-29480000D01*
X126420000Y-29480000D02*
X126420000Y-31350000D01*
%TO.N,GND*%
X171260000Y-33050000D02*
X130660000Y-33050000D01*
X130660000Y-33050000D02*
X128960000Y-31350000D01*
%TO.N,GPIO16*%
X150050000Y-97700000D02*
X150350000Y-97400000D01*
X150350000Y-97400000D02*
X152750000Y-97400000D01*
X133047500Y-92447500D02*
X138550000Y-97950000D01*
X125880000Y-92447500D02*
X133047500Y-92447500D01*
%TO.N,GPIO7*%
X149750000Y-94800000D02*
X149810000Y-94860000D01*
X149810000Y-94860000D02*
X152750000Y-94860000D01*
%TO.N,GND*%
X120800000Y-92447500D02*
X126007500Y-87240000D01*
X126007500Y-87240000D02*
X152750000Y-87240000D01*
%TO.N,3V3*%
X171550000Y-118450000D02*
X174356200Y-118450000D01*
%TO.N,Net-(J1-CC1)*%
X182625000Y-97025000D02*
X182050000Y-96450000D01*
X182050000Y-96450000D02*
X181900000Y-96450000D01*
X181900000Y-92800000D02*
X181900000Y-96450000D01*
X186850000Y-87850000D02*
X181900000Y-92800000D01*
X189032400Y-87850000D02*
X186850000Y-87850000D01*
X182625000Y-97025000D02*
X187360000Y-97025000D01*
%TO.N,GND*%
X189350000Y-109608800D02*
X187335000Y-107593800D01*
X187335000Y-107593800D02*
X187335000Y-100775000D01*
X187360000Y-93525000D02*
X187360000Y-92050000D01*
X187360000Y-92050000D02*
X187335000Y-92025000D01*
X188460000Y-93775000D02*
X188210000Y-93525000D01*
X188210000Y-93525000D02*
X187360000Y-93525000D01*
X191050000Y-91449999D02*
X191050000Y-88750000D01*
X191050000Y-88750000D02*
X190150000Y-87850000D01*
X187335000Y-100775000D02*
X187335000Y-100399999D01*
X187335000Y-100399999D02*
X188459999Y-99275000D01*
X187335000Y-100775000D02*
X187335000Y-99050000D01*
X187335000Y-99050000D02*
X187360000Y-99025000D01*
%TO.N,VBUS*%
X182950000Y-107400000D02*
X182950000Y-101234999D01*
X182950000Y-101234999D02*
X186659999Y-97525000D01*
X186659999Y-97525000D02*
X187360000Y-97525000D01*
%TO.N,GND*%
X182950000Y-112000000D02*
X186958800Y-112000000D01*
X186958800Y-112000000D02*
X189350000Y-109608800D01*
%TO.N,Net-(C2-Pad1)*%
X171049300Y-113000000D02*
X173500000Y-113000000D01*
X173500000Y-113000000D02*
X176800000Y-109700000D01*
%TO.N,Net-(C1-Pad1)*%
X177449300Y-118450000D02*
X177449300Y-115200700D01*
X177449300Y-115200700D02*
X182950000Y-109700000D01*
%TO.N,3V3*%
X175950700Y-118450000D02*
X174356200Y-118450000D01*
X174356200Y-118450000D02*
X169550700Y-113644500D01*
X169550700Y-113644500D02*
X169550700Y-113000000D01*
X169550700Y-113000000D02*
X151500000Y-113000000D01*
X151500000Y-113000000D02*
X140250000Y-101750000D01*
X140250000Y-101750000D02*
X140250000Y-92750000D01*
X144225000Y-88775000D02*
X144490000Y-88510000D01*
X144490000Y-88510000D02*
X152750000Y-88510000D01*
%TO.N,GND*%
X158600000Y-93560000D02*
X158600000Y-92140000D01*
X158600000Y-92140000D02*
X153700000Y-87240000D01*
X153700000Y-87240000D02*
X152750000Y-87240000D01*
X161400000Y-93560000D02*
X167720000Y-87240000D01*
X167720000Y-87240000D02*
X170250000Y-87240000D01*
X160000000Y-93560000D02*
X161400000Y-93560000D01*
X160000000Y-93560000D02*
X158600000Y-93560000D01*
X160000000Y-94960000D02*
X160000000Y-93560000D01*
X161400000Y-94960000D02*
X160000000Y-94960000D01*
X161400000Y-96360000D02*
X161400000Y-94960000D01*
X160000000Y-96360000D02*
X161400000Y-96360000D01*
X158600000Y-96360000D02*
X160000000Y-96360000D01*
X158600000Y-94960000D02*
X158600000Y-96360000D01*
X158600000Y-93560000D02*
X158600000Y-94960000D01*
%TD*%
M02*
