%TF.GenerationSoftware,KiCad,Pcbnew,10.0.0*%
%TF.CreationDate,2026-04-10T13:21:52-07:00*%
%TF.ProjectId,v1,76312e6b-6963-4616-945f-706362585858,rev?*%
%TF.SameCoordinates,Original*%
%TF.FileFunction,Soldermask,Top*%
%TF.FilePolarity,Negative*%
%FSLAX46Y46*%
G04 Gerber Fmt 4.6, Leading zero omitted, Abs format (unit mm)*
G04 Created by KiCad (PCBNEW 10.0.0) date 2026-04-10 13:21:52*
%MOMM*%
%LPD*%
G01*
G04 APERTURE LIST*
G04 Aperture macros list*
%AMRoundRect*
0 Rectangle with rounded corners*
0 $1 Rounding radius*
0 $2 $3 $4 $5 $6 $7 $8 $9 X,Y pos of 4 corners*
0 Add a 4 corners polygon primitive as box body*
4,1,4,$2,$3,$4,$5,$6,$7,$8,$9,$2,$3,0*
0 Add four circle primitives for the rounded corners*
1,1,$1+$1,$2,$3*
1,1,$1+$1,$4,$5*
1,1,$1+$1,$6,$7*
1,1,$1+$1,$8,$9*
0 Add four rect primitives between the rounded corners*
20,1,$1+$1,$2,$3,$4,$5,0*
20,1,$1+$1,$4,$5,$6,$7,0*
20,1,$1+$1,$6,$7,$8,$9,0*
20,1,$1+$1,$8,$9,$2,$3,0*%
G04 Aperture macros list end*
%ADD10C,0.010000*%
%ADD11R,0.660400X1.041400*%
%ADD12R,1.041400X0.660400*%
%ADD13C,1.600000*%
%ADD14R,1.500000X0.900000*%
%ADD15R,0.900000X1.500000*%
%ADD16R,0.900000X0.900000*%
%ADD17R,1.450000X0.900001*%
%ADD18R,1.450000X3.149999*%
%ADD19R,0.508000X0.660400*%
%ADD20R,0.660400X0.508000*%
%ADD21O,1.254000X1.904000*%
%ADD22O,3.004000X1.304000*%
%ADD23R,0.914400X0.889000*%
%ADD24R,1.700000X1.700000*%
%ADD25C,1.700000*%
%ADD26C,3.200000*%
%ADD27C,3.000000*%
%ADD28RoundRect,0.102000X-0.754000X-0.754000X0.754000X-0.754000X0.754000X0.754000X-0.754000X0.754000X0*%
%ADD29C,1.712000*%
G04 APERTURE END LIST*
D10*
%TO.C,J1*%
X187860000Y-99225000D02*
X186860000Y-99225000D01*
X186860001Y-98825000D01*
X187859999Y-98825000D01*
X187860000Y-99225000D01*
G36*
X187860000Y-99225000D02*
G01*
X186860000Y-99225000D01*
X186860001Y-98825000D01*
X187859999Y-98825000D01*
X187860000Y-99225000D01*
G37*
X188960000Y-93975000D02*
X187960000Y-93975000D01*
X187960000Y-93575000D01*
X188960000Y-93575000D01*
X188960000Y-93975000D01*
G36*
X188960000Y-93975000D02*
G01*
X187960000Y-93975000D01*
X187960000Y-93575000D01*
X188960000Y-93575000D01*
X188960000Y-93975000D01*
G37*
X187860000Y-98725000D02*
X186860000Y-98725000D01*
X186860000Y-98325000D01*
X187860000Y-98325000D01*
X187860000Y-98725000D01*
G36*
X187860000Y-98725000D02*
G01*
X186860000Y-98725000D01*
X186860000Y-98325000D01*
X187860000Y-98325000D01*
X187860000Y-98725000D01*
G37*
X187859999Y-98225000D02*
X186860000Y-98224999D01*
X186860000Y-97825000D01*
X187860000Y-97825000D01*
X187859999Y-98225000D01*
G36*
X187859999Y-98225000D02*
G01*
X186860000Y-98224999D01*
X186860000Y-97825000D01*
X187860000Y-97825000D01*
X187859999Y-98225000D01*
G37*
X187860000Y-97725000D02*
X186860000Y-97725000D01*
X186860000Y-97325000D01*
X187860000Y-97325000D01*
X187860000Y-97725000D01*
G36*
X187860000Y-97725000D02*
G01*
X186860000Y-97725000D01*
X186860000Y-97325000D01*
X187860000Y-97325000D01*
X187860000Y-97725000D01*
G37*
X187859999Y-97225000D02*
X186860000Y-97225001D01*
X186860000Y-96825000D01*
X187860000Y-96825000D01*
X187859999Y-97225000D01*
G36*
X187859999Y-97225000D02*
G01*
X186860000Y-97225001D01*
X186860000Y-96825000D01*
X187860000Y-96825000D01*
X187859999Y-97225000D01*
G37*
X187860000Y-96725000D02*
X186860000Y-96725000D01*
X186860001Y-96325000D01*
X187859999Y-96325000D01*
X187860000Y-96725000D01*
G36*
X187860000Y-96725000D02*
G01*
X186860000Y-96725000D01*
X186860001Y-96325000D01*
X187859999Y-96325000D01*
X187860000Y-96725000D01*
G37*
X187860000Y-96225000D02*
X186860000Y-96225000D01*
X186860000Y-95825000D01*
X187860000Y-95825000D01*
X187860000Y-96225000D01*
G36*
X187860000Y-96225000D02*
G01*
X186860000Y-96225000D01*
X186860000Y-95825000D01*
X187860000Y-95825000D01*
X187860000Y-96225000D01*
G37*
X187859999Y-95725000D02*
X186860001Y-95725000D01*
X186860000Y-95325000D01*
X187860000Y-95325000D01*
X187859999Y-95725000D01*
G36*
X187859999Y-95725000D02*
G01*
X186860001Y-95725000D01*
X186860000Y-95325000D01*
X187860000Y-95325000D01*
X187859999Y-95725000D01*
G37*
X187860000Y-95225000D02*
X186860000Y-95225000D01*
X186860000Y-94825000D01*
X187860000Y-94825000D01*
X187860000Y-95225000D01*
G36*
X187860000Y-95225000D02*
G01*
X186860000Y-95225000D01*
X186860000Y-94825000D01*
X187860000Y-94825000D01*
X187860000Y-95225000D01*
G37*
X187860000Y-94725001D02*
X186860000Y-94725001D01*
X186860000Y-94325000D01*
X187860000Y-94325000D01*
X187860000Y-94725001D01*
G36*
X187860000Y-94725001D02*
G01*
X186860000Y-94725001D01*
X186860000Y-94325000D01*
X187860000Y-94325000D01*
X187860000Y-94725001D01*
G37*
X187860000Y-94225000D02*
X186860000Y-94225000D01*
X186860001Y-93825000D01*
X187859999Y-93825000D01*
X187860000Y-94225000D01*
G36*
X187860000Y-94225000D02*
G01*
X186860000Y-94225000D01*
X186860001Y-93825000D01*
X187859999Y-93825000D01*
X187860000Y-94225000D01*
G37*
X187860000Y-93725000D02*
X186860000Y-93725000D01*
X186860000Y-93325000D01*
X187860000Y-93325000D01*
X187860000Y-93725000D01*
G36*
X187860000Y-93725000D02*
G01*
X186860000Y-93725000D01*
X186860000Y-93325000D01*
X187860000Y-93325000D01*
X187860000Y-93725000D01*
G37*
X188960000Y-94475000D02*
X187960000Y-94474999D01*
X187960000Y-94075000D01*
X188960000Y-94075000D01*
X188960000Y-94475000D01*
G36*
X188960000Y-94475000D02*
G01*
X187960000Y-94474999D01*
X187960000Y-94075000D01*
X188960000Y-94075000D01*
X188960000Y-94475000D01*
G37*
X188960000Y-94975000D02*
X187960000Y-94975000D01*
X187960000Y-94575000D01*
X188960000Y-94575000D01*
X188960000Y-94975000D01*
G36*
X188960000Y-94975000D02*
G01*
X187960000Y-94975000D01*
X187960000Y-94575000D01*
X188960000Y-94575000D01*
X188960000Y-94975000D01*
G37*
X188960000Y-95475000D02*
X187960000Y-95475000D01*
X187960001Y-95075000D01*
X188960000Y-95075000D01*
X188960000Y-95475000D01*
G36*
X188960000Y-95475000D02*
G01*
X187960000Y-95475000D01*
X187960001Y-95075000D01*
X188960000Y-95075000D01*
X188960000Y-95475000D01*
G37*
X188960000Y-95975000D02*
X187960000Y-95975001D01*
X187960000Y-95575000D01*
X188960000Y-95575000D01*
X188960000Y-95975000D01*
G36*
X188960000Y-95975000D02*
G01*
X187960000Y-95975001D01*
X187960000Y-95575000D01*
X188960000Y-95575000D01*
X188960000Y-95975000D01*
G37*
X188960000Y-96475000D02*
X187960000Y-96475000D01*
X187960000Y-96075000D01*
X188960000Y-96075000D01*
X188960000Y-96475000D01*
G36*
X188960000Y-96475000D02*
G01*
X187960000Y-96475000D01*
X187960000Y-96075000D01*
X188960000Y-96075000D01*
X188960000Y-96475000D01*
G37*
X188960000Y-96975000D02*
X187960000Y-96974999D01*
X187960000Y-96575000D01*
X188960000Y-96575000D01*
X188960000Y-96975000D01*
G36*
X188960000Y-96975000D02*
G01*
X187960000Y-96974999D01*
X187960000Y-96575000D01*
X188960000Y-96575000D01*
X188960000Y-96975000D01*
G37*
X188960000Y-97475000D02*
X187960000Y-97475000D01*
X187960000Y-97075000D01*
X188960000Y-97075000D01*
X188960000Y-97475000D01*
G36*
X188960000Y-97475000D02*
G01*
X187960000Y-97475000D01*
X187960000Y-97075000D01*
X188960000Y-97075000D01*
X188960000Y-97475000D01*
G37*
X188960000Y-97975000D02*
X187960000Y-97975000D01*
X187960001Y-97575000D01*
X188960000Y-97575000D01*
X188960000Y-97975000D01*
G36*
X188960000Y-97975000D02*
G01*
X187960000Y-97975000D01*
X187960001Y-97575000D01*
X188960000Y-97575000D01*
X188960000Y-97975000D01*
G37*
X188960000Y-98475000D02*
X187960000Y-98475001D01*
X187960000Y-98075000D01*
X188960000Y-98075000D01*
X188960000Y-98475000D01*
G36*
X188960000Y-98475000D02*
G01*
X187960000Y-98475001D01*
X187960000Y-98075000D01*
X188960000Y-98075000D01*
X188960000Y-98475000D01*
G37*
X188960000Y-98975000D02*
X187960000Y-98975000D01*
X187960000Y-98575000D01*
X188960000Y-98575000D01*
X188960000Y-98975000D01*
G36*
X188960000Y-98975000D02*
G01*
X187960000Y-98975000D01*
X187960000Y-98575000D01*
X188960000Y-98575000D01*
X188960000Y-98975000D01*
G37*
X188960000Y-99475000D02*
X187960000Y-99475000D01*
X187960000Y-99075001D01*
X188960000Y-99075000D01*
X188960000Y-99475000D01*
G36*
X188960000Y-99475000D02*
G01*
X187960000Y-99475000D01*
X187960000Y-99075001D01*
X188960000Y-99075000D01*
X188960000Y-99475000D01*
G37*
%TD*%
D11*
%TO.C,SW2*%
X176624999Y-59875000D03*
X176624999Y-64025000D03*
X174475001Y-64025000D03*
X174475001Y-59875000D03*
%TD*%
D12*
%TO.C,SW1*%
X166000001Y-121800000D03*
X170150001Y-121800000D03*
X170150001Y-123950000D03*
X166000001Y-123950000D03*
%TD*%
D13*
%TO.C,R4*%
X160580000Y-123350000D03*
X150420000Y-123350000D03*
%TD*%
%TO.C,R3*%
X183550000Y-65360000D03*
X183550000Y-55200000D03*
%TD*%
D14*
%TO.C,U2*%
X152750000Y-87240000D03*
X152750000Y-88510000D03*
X152750000Y-89780000D03*
X152750000Y-91050000D03*
X152750000Y-92320000D03*
X152750000Y-93590000D03*
X152750000Y-94860000D03*
X152750000Y-96130000D03*
X152750000Y-97400000D03*
X152750000Y-98670000D03*
X152750000Y-99940000D03*
X152750000Y-101210000D03*
X152750000Y-102480000D03*
X152750000Y-103750000D03*
D15*
X154515000Y-105000000D03*
X155785000Y-105000000D03*
X157055000Y-105000000D03*
X158325000Y-105000000D03*
X159595000Y-105000000D03*
X160865000Y-105000000D03*
X162135000Y-105000000D03*
X163405000Y-105000000D03*
X164675000Y-105000000D03*
X165945000Y-105000000D03*
X167215000Y-105000000D03*
X168485000Y-105000000D03*
D14*
X170250000Y-103750000D03*
X170250000Y-102480000D03*
X170250000Y-101210000D03*
X170250000Y-99940000D03*
X170250000Y-98670000D03*
X170250000Y-97400000D03*
X170250000Y-96130000D03*
X170250000Y-94860000D03*
X170250000Y-93590000D03*
X170250000Y-92320000D03*
X170250000Y-91050000D03*
X170250000Y-89780000D03*
X170250000Y-88510000D03*
X170250000Y-87240000D03*
D16*
X158600000Y-93560000D03*
X158600000Y-94960000D03*
X158600000Y-96360000D03*
X158600000Y-96360000D03*
X160000000Y-93560000D03*
X160000000Y-93560000D03*
X160000000Y-94960000D03*
X160000000Y-96360000D03*
X161400000Y-93560000D03*
X161400000Y-94960000D03*
X161400000Y-96360000D03*
%TD*%
D17*
%TO.C,U1*%
X182950000Y-112000000D03*
X182950000Y-109700000D03*
X182950000Y-107400000D03*
D18*
X176800000Y-109700000D03*
%TD*%
D19*
%TO.C,R2*%
X189350000Y-109608800D03*
X189350000Y-108491200D03*
%TD*%
D20*
%TO.C,R1*%
X189032400Y-87850000D03*
X190150000Y-87850000D03*
%TD*%
D21*
%TO.C,J1*%
X187335000Y-100775000D03*
D22*
X191050000Y-101350001D03*
D21*
X187335000Y-92025000D03*
D22*
X191050000Y-91449999D03*
%TD*%
D23*
%TO.C,C2*%
X171049300Y-113000000D03*
X169550700Y-113000000D03*
%TD*%
%TO.C,C1*%
X177449300Y-118450000D03*
X175950700Y-118450000D03*
%TD*%
D24*
%TO.C,T1*%
X171260000Y-33050000D03*
D25*
X173800000Y-33050000D03*
X176339999Y-33050000D03*
%TD*%
D26*
%TO.C,H3*%
X100000000Y-32000000D03*
%TD*%
D24*
%TO.C,L1*%
X128960000Y-31350000D03*
D25*
X126420000Y-31350000D03*
X123880000Y-31350000D03*
X121340000Y-31350000D03*
X118800000Y-31350000D03*
X116260000Y-31350000D03*
X113720000Y-31350000D03*
X111180000Y-31350000D03*
%TD*%
D26*
%TO.C,H1*%
X100020000Y-122000000D03*
%TD*%
D27*
%TO.C,DS1*%
X106320000Y-93147500D03*
X106320000Y-122847500D03*
X137820000Y-93147500D03*
X137820000Y-122847500D03*
D28*
X118260000Y-92447500D03*
D29*
X120800000Y-92447500D03*
X123340000Y-92447500D03*
X125880000Y-92447500D03*
%TD*%
D26*
%TO.C,H4*%
X191000000Y-32000000D03*
%TD*%
%TO.C,H2*%
X191000000Y-122000000D03*
%TD*%
M02*
