%TF.GenerationSoftware,KiCad,Pcbnew,10.0.0*%
%TF.CreationDate,2026-04-03T20:48:40-07:00*%
%TF.ProjectId,v1,76312e6b-6963-4616-945f-706362585858,rev?*%
%TF.SameCoordinates,Original*%
%TF.FileFunction,Copper,L1,Top*%
%TF.FilePolarity,Positive*%
%FSLAX46Y46*%
G04 Gerber Fmt 4.6, Leading zero omitted, Abs format (unit mm)*
G04 Created by KiCad (PCBNEW 10.0.0) date 2026-04-03 20:48:40*
%MOMM*%
%LPD*%
G01*
G04 APERTURE LIST*
%TA.AperFunction,ComponentPad*%
%ADD10R,1.200000X2.000000*%
%TD*%
%TA.AperFunction,ComponentPad*%
%ADD11O,1.200000X2.000000*%
%TD*%
%TA.AperFunction,ComponentPad*%
%ADD12R,1.508000X1.508000*%
%TD*%
%TA.AperFunction,ComponentPad*%
%ADD13C,1.508000*%
%TD*%
%TA.AperFunction,ComponentPad*%
%ADD14C,3.000000*%
%TD*%
%TA.AperFunction,ComponentPad*%
%ADD15R,1.700000X1.700000*%
%TD*%
%TA.AperFunction,ComponentPad*%
%ADD16C,1.700000*%
%TD*%
%TA.AperFunction,Conductor*%
%ADD17C,0.200000*%
%TD*%
G04 APERTURE END LIST*
D10*
%TO.P,U1,1,3V3_1*%
%TO.N,Net-(J1-Pin_1)*%
X108410000Y-107610000D03*
D11*
%TO.P,U1,2,3V3_2*%
X110950000Y-107610000D03*
%TO.P,U1,3,CHIP_PU_3*%
%TO.N,Net-(J1-Pin_3)*%
X113489999Y-107610000D03*
%TO.P,U1,4,GPIO4/ADC1_CH3_4*%
%TO.N,Net-(J1-Pin_4)*%
X116030000Y-107610000D03*
%TO.P,U1,5,GPIO5/ADC1_CH4_5*%
%TO.N,Net-(J1-Pin_5)*%
X118570000Y-107610000D03*
%TO.P,U1,6,GPIO6/ADC1_CH5_6*%
%TO.N,Net-(J1-Pin_6)*%
X121110000Y-107610000D03*
%TO.P,U1,7,GPIO7/ADC1_CH6_7*%
%TO.N,Net-(J1-Pin_7)*%
X123650000Y-107610000D03*
%TO.P,U1,8,GPIO15/ADC2_CH4/32K_P_8*%
%TO.N,Net-(J1-Pin_8)*%
X126190001Y-107610000D03*
%TO.P,U1,9,GPIO16/ADC2_CH5/32K_N_9*%
%TO.N,Net-(J1-Pin_9)*%
X128730000Y-107610000D03*
%TO.P,U1,10,GPIO17/ADC2_CH6_10*%
%TO.N,Net-(J1-Pin_10)*%
X131270000Y-107610000D03*
%TO.P,U1,11,GPIO18/ADC2_CH7_11*%
%TO.N,Net-(J1-Pin_11)*%
X133810000Y-107610000D03*
%TO.P,U1,12,GPIO8/ADC1_CH7_12*%
%TO.N,Net-(J1-Pin_12)*%
X136349999Y-107610000D03*
%TO.P,U1,13,GPIO3/ADC1_CH2_13*%
%TO.N,Net-(J1-Pin_13)*%
X138890000Y-107610000D03*
%TO.P,U1,14,GPIO46_14*%
%TO.N,Net-(J1-Pin_14)*%
X141430000Y-107610000D03*
%TO.P,U1,15,GPIO9/ADC1_CH8_15*%
%TO.N,Net-(J1-Pin_15)*%
X143970000Y-107610000D03*
%TO.P,U1,16,GPIO10/ADC1_CH9_16*%
%TO.N,Net-(J1-Pin_16)*%
X146509999Y-107610000D03*
%TO.P,U1,17,GPIO11/ADC2_CH0_17*%
%TO.N,Net-(J1-Pin_17)*%
X149050001Y-107610000D03*
%TO.P,U1,18,GPIO12/ADC2_CH1_18*%
%TO.N,Net-(J1-Pin_18)*%
X151590000Y-107610000D03*
%TO.P,U1,19,GPIO13/ADC2_CH2_19*%
%TO.N,Net-(J1-Pin_19)*%
X154130000Y-107610000D03*
%TO.P,U1,20,GPIO14/ADC2_CH3_20*%
%TO.N,Net-(J1-Pin_20)*%
X156667280Y-107613680D03*
%TO.P,U1,21,5V_21*%
%TO.N,Net-(J1-Pin_21)*%
X159207280Y-107613680D03*
%TO.P,U1,22,GND_22*%
%TO.N,Net-(J1-Pin_22)*%
X161747280Y-107613680D03*
%TO.P,U1,23,GND_23*%
X161750000Y-84750000D03*
%TO.P,U1,24,GND_24*%
X159210000Y-84749999D03*
%TO.P,U1,25,GPIO19/USB_D-_25*%
%TO.N,Net-(J1-Pin_42)*%
X156670000Y-84750000D03*
%TO.P,U1,26,GPIO20/USB_D+_26*%
%TO.N,Net-(J1-Pin_41)*%
X154130000Y-84750000D03*
%TO.P,U1,27,GPIO21_27*%
%TO.N,Net-(J1-Pin_40)*%
X151590000Y-84750000D03*
%TO.P,U1,28,GPIO47_28*%
%TO.N,Net-(J1-Pin_39)*%
X149050001Y-84750000D03*
%TO.P,U1,29,GPIO48_29*%
%TO.N,Net-(J1-Pin_38)*%
X146509999Y-84750000D03*
%TO.P,U1,30,GPIO45_30*%
%TO.N,Net-(J1-Pin_37)*%
X143970000Y-84750000D03*
%TO.P,U1,31,GPIO0_31*%
%TO.N,Net-(J1-Pin_36)*%
X141430000Y-84750000D03*
%TO.P,U1,32,GPIO35_32*%
%TO.N,Net-(J1-Pin_35)*%
X138890000Y-84750000D03*
%TO.P,U1,33,GPIO36_33*%
%TO.N,Net-(J1-Pin_34)*%
X136349999Y-84750000D03*
%TO.P,U1,34,GPIO37_34*%
%TO.N,Net-(J1-Pin_33)*%
X133810000Y-84750000D03*
%TO.P,U1,35,GPIO38_35*%
%TO.N,Net-(J1-Pin_32)*%
X131270000Y-84750000D03*
%TO.P,U1,36,GPIO39/MTCK_36*%
%TO.N,Net-(J1-Pin_31)*%
X128730000Y-84750000D03*
%TO.P,U1,37,GPIO40/MTDO_37*%
%TO.N,Net-(J1-Pin_30)*%
X126190001Y-84750000D03*
%TO.P,U1,38,GPIO41/MTDI_38*%
%TO.N,Net-(J1-Pin_29)*%
X123650000Y-84750000D03*
%TO.P,U1,39,GPIO42/MTMS_39*%
%TO.N,Net-(J1-Pin_28)*%
X121110000Y-84750000D03*
%TO.P,U1,40,GPIO2/ADC1_CH1_40*%
%TO.N,Net-(J1-Pin_27)*%
X118570000Y-84750000D03*
%TO.P,U1,41,GPIO1/ADC1_CH0_41*%
%TO.N,Net-(J1-Pin_26)*%
X116030000Y-84750000D03*
%TO.P,U1,42,GPIO44/U0RXD_42*%
%TO.N,Net-(J1-Pin_25)*%
X113489999Y-84750000D03*
%TO.P,U1,43,GPIO43/U0TXD_43*%
%TO.N,Net-(J1-Pin_24)*%
X110950000Y-84750000D03*
%TO.P,U1,44,GND_44*%
%TO.N,Net-(J1-Pin_22)*%
X108410000Y-84750000D03*
%TD*%
D12*
%TO.P,U2,1,GND_1*%
%TO.N,Net-(J1-Pin_22)*%
X134440000Y-38000000D03*
D13*
%TO.P,U2,2,VCC_IN_2*%
%TO.N,Net-(J1-Pin_1)*%
X136979999Y-38000000D03*
%TO.P,U2,3,SCL_3*%
%TO.N,Net-(J1-Pin_15)*%
X139520001Y-38000000D03*
%TO.P,U2,4,SDA_4*%
%TO.N,Net-(J1-Pin_12)*%
X142060000Y-38000000D03*
D14*
%TO.P,U2,S1*%
%TO.N,N/C*%
X127250000Y-38500000D03*
%TO.P,U2,S2*%
X149250000Y-38500000D03*
%TO.P,U2,S3*%
X149250000Y-60500000D03*
%TO.P,U2,S4*%
X127250000Y-60500000D03*
%TD*%
D15*
%TO.P,J1,1,Pin_1_1*%
%TO.N,Net-(J1-Pin_1)*%
X108653170Y-73246257D03*
D16*
%TO.P,J1,2,Pin_2_2*%
X108653170Y-70706257D03*
%TO.P,J1,3,Pin_3_3*%
%TO.N,Net-(J1-Pin_3)*%
X111193170Y-73246257D03*
%TO.P,J1,4,Pin_4_4*%
%TO.N,Net-(J1-Pin_4)*%
X111193170Y-70706257D03*
%TO.P,J1,5,Pin_5_5*%
%TO.N,Net-(J1-Pin_5)*%
X113733169Y-73246257D03*
%TO.P,J1,6,Pin_6_6*%
%TO.N,Net-(J1-Pin_6)*%
X113733170Y-70706257D03*
%TO.P,J1,7,Pin_7_7*%
%TO.N,Net-(J1-Pin_7)*%
X116273170Y-73246257D03*
%TO.P,J1,8,Pin_8_8*%
%TO.N,Net-(J1-Pin_8)*%
X116273170Y-70706257D03*
%TO.P,J1,9,Pin_9_9*%
%TO.N,Net-(J1-Pin_9)*%
X118813170Y-73246257D03*
%TO.P,J1,10,Pin_10_10*%
%TO.N,Net-(J1-Pin_10)*%
X118813170Y-70706257D03*
%TO.P,J1,11,Pin_11_11*%
%TO.N,Net-(J1-Pin_11)*%
X121353170Y-73246257D03*
%TO.P,J1,12,Pin_12_12*%
%TO.N,Net-(J1-Pin_12)*%
X121353170Y-70706257D03*
%TO.P,J1,13,Pin_13_13*%
%TO.N,Net-(J1-Pin_13)*%
X123893170Y-73246257D03*
%TO.P,J1,14,Pin_14_14*%
%TO.N,Net-(J1-Pin_14)*%
X123893170Y-70706257D03*
%TO.P,J1,15,Pin_15_15*%
%TO.N,Net-(J1-Pin_15)*%
X126433171Y-73246257D03*
%TO.P,J1,16,Pin_16_16*%
%TO.N,Net-(J1-Pin_16)*%
X126433170Y-70706257D03*
%TO.P,J1,17,Pin_17_17*%
%TO.N,Net-(J1-Pin_17)*%
X128973170Y-73246257D03*
%TO.P,J1,18,Pin_18_18*%
%TO.N,Net-(J1-Pin_18)*%
X128973170Y-70706257D03*
%TO.P,J1,19,Pin_19_19*%
%TO.N,Net-(J1-Pin_19)*%
X131513170Y-73246257D03*
%TO.P,J1,20,Pin_20_20*%
%TO.N,Net-(J1-Pin_20)*%
X131513170Y-70706257D03*
%TO.P,J1,21,Pin_21_21*%
%TO.N,Net-(J1-Pin_21)*%
X134053170Y-73246257D03*
%TO.P,J1,22,Pin_22_22*%
%TO.N,Net-(J1-Pin_22)*%
X134053170Y-70706257D03*
%TO.P,J1,23,Pin_23_23*%
X136593169Y-73246257D03*
%TO.P,J1,24,Pin_24_24*%
%TO.N,Net-(J1-Pin_24)*%
X136593170Y-70706257D03*
%TO.P,J1,25,Pin_25_25*%
%TO.N,Net-(J1-Pin_25)*%
X139133170Y-73246257D03*
%TO.P,J1,26,Pin_26_26*%
%TO.N,Net-(J1-Pin_26)*%
X139133170Y-70706257D03*
%TO.P,J1,27,Pin_27_27*%
%TO.N,Net-(J1-Pin_27)*%
X141673170Y-73246257D03*
%TO.P,J1,28,Pin_28_28*%
%TO.N,Net-(J1-Pin_28)*%
X141673170Y-70706257D03*
%TO.P,J1,29,Pin_29_29*%
%TO.N,Net-(J1-Pin_29)*%
X144213170Y-73246257D03*
%TO.P,J1,30,Pin_30_30*%
%TO.N,Net-(J1-Pin_30)*%
X144213170Y-70706257D03*
%TO.P,J1,31,Pin_31_31*%
%TO.N,Net-(J1-Pin_31)*%
X146753169Y-73246257D03*
%TO.P,J1,32,Pin_32_32*%
%TO.N,Net-(J1-Pin_32)*%
X146753170Y-70706257D03*
%TO.P,J1,33,Pin_33_33*%
%TO.N,Net-(J1-Pin_33)*%
X149293171Y-73246257D03*
%TO.P,J1,34,Pin_34_34*%
%TO.N,Net-(J1-Pin_34)*%
X149293170Y-70706257D03*
%TO.P,J1,35,Pin_35_35*%
%TO.N,Net-(J1-Pin_35)*%
X151833170Y-73246257D03*
%TO.P,J1,36,Pin_36_36*%
%TO.N,Net-(J1-Pin_36)*%
X151833170Y-70706257D03*
%TO.P,J1,37,Pin_37_37*%
%TO.N,Net-(J1-Pin_37)*%
X154373170Y-73246257D03*
%TO.P,J1,38,Pin_38_38*%
%TO.N,Net-(J1-Pin_38)*%
X154373170Y-70706257D03*
%TO.P,J1,39,Pin_39_39*%
%TO.N,Net-(J1-Pin_39)*%
X156913170Y-73246257D03*
%TO.P,J1,40,Pin_40_40*%
%TO.N,Net-(J1-Pin_40)*%
X156913170Y-70706257D03*
%TO.P,J1,41,Pin_41_41*%
%TO.N,Net-(J1-Pin_41)*%
X159453169Y-73246257D03*
%TO.P,J1,42,Pin_42_42*%
%TO.N,Net-(J1-Pin_42)*%
X159453170Y-70706257D03*
%TO.P,J1,43,Pin_43_43*%
%TO.N,Net-(J1-Pin_22)*%
X161993170Y-73246257D03*
%TO.P,J1,44,Pin_44_44*%
X161993170Y-70706257D03*
%TD*%
%TO.N,Net-(J1-Pin_42)*%
D17*
X160843170Y-72096257D02*
X159453170Y-70706257D01*
X160843170Y-80576830D02*
X160843170Y-72096257D01*
X156670000Y-84750000D02*
X160843170Y-80576830D01*
%TO.N,Net-(J1-Pin_41)*%
X154130000Y-84750000D02*
X154250000Y-84750000D01*
X158500000Y-80500000D02*
X158500000Y-74199426D01*
X158500000Y-74199426D02*
X159453169Y-73246257D01*
X154250000Y-84750000D02*
X158500000Y-80500000D01*
%TO.N,Net-(J1-Pin_40)*%
X151590000Y-84750000D02*
X151590000Y-80543741D01*
X158250000Y-72043087D02*
X156913170Y-70706257D01*
X158250000Y-73883741D02*
X158250000Y-72043087D01*
X151590000Y-80543741D02*
X158250000Y-73883741D01*
%TO.N,Net-(J1-Pin_39)*%
X149050001Y-81109426D02*
X156913170Y-73246257D01*
X149050001Y-84750000D02*
X149050001Y-81109426D01*
%TO.N,Net-(J1-Pin_38)*%
X146509999Y-84750000D02*
X146509999Y-82735774D01*
X155523170Y-71856257D02*
X154373170Y-70706257D01*
X155523170Y-73722603D02*
X155523170Y-71856257D01*
X146509999Y-82735774D02*
X155523170Y-73722603D01*
%TO.N,Net-(J1-Pin_37)*%
X143970000Y-84750000D02*
X143970000Y-83649427D01*
X143970000Y-83649427D02*
X154373170Y-73246257D01*
%TO.N,Net-(J1-Pin_36)*%
X141430000Y-84750000D02*
X142230000Y-84750000D01*
X142230000Y-84750000D02*
X152983170Y-73996830D01*
X152983170Y-73996830D02*
X152983170Y-71856257D01*
X152983170Y-71856257D02*
X151833170Y-70706257D01*
%TO.N,Net-(J1-Pin_35)*%
X140190000Y-83450000D02*
X142964314Y-83450000D01*
X151833170Y-73833170D02*
X151833170Y-73246257D01*
X138890000Y-84750000D02*
X140190000Y-83450000D01*
X142964314Y-83450000D02*
X152207157Y-74207157D01*
X152207157Y-74207157D02*
X151833170Y-73833170D01*
%TO.N,Net-(J1-Pin_34)*%
X150683170Y-73566830D02*
X150683170Y-72096257D01*
X138349999Y-82750000D02*
X141500000Y-82750000D01*
X141500000Y-82750000D02*
X150683170Y-73566830D01*
X136349999Y-84750000D02*
X138349999Y-82750000D01*
X150683170Y-72096257D02*
X149293170Y-70706257D01*
%TO.N,Net-(J1-Pin_33)*%
X141250000Y-82250000D02*
X149293171Y-74206829D01*
X149293171Y-74206829D02*
X149293171Y-73246257D01*
X133810000Y-84750000D02*
X136310000Y-82250000D01*
X136310000Y-82250000D02*
X141250000Y-82250000D01*
%TO.N,Net-(J1-Pin_32)*%
X131270000Y-84750000D02*
X134302843Y-81717157D01*
X148143171Y-74791143D02*
X148143171Y-72096258D01*
X141217157Y-81717157D02*
X148143171Y-74791143D01*
X134302843Y-81717157D02*
X141217157Y-81717157D01*
X148143171Y-72096258D02*
X146753170Y-70706257D01*
%TO.N,Net-(J1-Pin_31)*%
X140750000Y-81250000D02*
X147500000Y-74500000D01*
X146753169Y-73753169D02*
X146753169Y-73246257D01*
X128730000Y-84750000D02*
X132230000Y-81250000D01*
X132230000Y-81250000D02*
X140750000Y-81250000D01*
X147500000Y-74500000D02*
X146753169Y-73753169D01*
%TO.N,Net-(J1-Pin_30)*%
X145603169Y-72769911D02*
X145686540Y-72686540D01*
X145686540Y-72686540D02*
X145686540Y-72179627D01*
X145603169Y-75396831D02*
X145603169Y-72769911D01*
X140500000Y-80500000D02*
X145603169Y-75396831D01*
X130440001Y-80500000D02*
X140500000Y-80500000D01*
X126190001Y-84750000D02*
X130440001Y-80500000D01*
X145686540Y-72179627D02*
X144213170Y-70706257D01*
%TO.N,Net-(J1-Pin_29)*%
X144213170Y-74963170D02*
X144213170Y-73246257D01*
X140467157Y-79967157D02*
X140467157Y-79782843D01*
X128432843Y-79967157D02*
X140467157Y-79967157D01*
X144750000Y-75500000D02*
X144213170Y-74963170D01*
X123650000Y-84750000D02*
X128432843Y-79967157D01*
X140467157Y-79782843D02*
X144750000Y-75500000D01*
%TO.N,Net-(J1-Pin_28)*%
X142823170Y-74823170D02*
X142823170Y-71856257D01*
X143750000Y-75750000D02*
X142823170Y-74823170D01*
X140000000Y-79500000D02*
X143750000Y-75750000D01*
X126360000Y-79500000D02*
X140000000Y-79500000D01*
X121110000Y-84750000D02*
X126360000Y-79500000D01*
X142823170Y-71856257D02*
X141673170Y-70706257D01*
%TO.N,Net-(J1-Pin_27)*%
X142250000Y-73823087D02*
X141673170Y-73246257D01*
X118570000Y-84750000D02*
X124220000Y-79100000D01*
X124220000Y-79100000D02*
X139250000Y-79100000D01*
X142250000Y-76100000D02*
X142250000Y-73823087D01*
X139250000Y-79100000D02*
X142250000Y-76100000D01*
%TO.N,Net-(J1-Pin_26)*%
X140283170Y-74533170D02*
X140283170Y-71856257D01*
X140283170Y-71856257D02*
X139133170Y-70706257D01*
X138550000Y-78700000D02*
X141500000Y-75750000D01*
X122080000Y-78700000D02*
X138550000Y-78700000D01*
X116030000Y-84750000D02*
X122080000Y-78700000D01*
X141500000Y-75750000D02*
X140283170Y-74533170D01*
%TO.N,Net-(J1-Pin_25)*%
X113489999Y-84750000D02*
X119989999Y-78250000D01*
X119989999Y-78250000D02*
X138250000Y-78250000D01*
X140250000Y-76250000D02*
X139133170Y-75133170D01*
X138250000Y-78250000D02*
X140250000Y-76250000D01*
X139133170Y-75133170D02*
X139133170Y-73246257D01*
%TO.N,Net-(J1-Pin_24)*%
X137750000Y-77750000D02*
X139467157Y-76032843D01*
X117950000Y-77750000D02*
X137750000Y-77750000D01*
X137753409Y-74319095D02*
X137753409Y-71866496D01*
X110950000Y-84750000D02*
X117950000Y-77750000D01*
X139467157Y-76032843D02*
X137753409Y-74319095D01*
X137753409Y-71866496D02*
X136593170Y-70706257D01*
%TO.N,Net-(J1-Pin_22)*%
X134440000Y-38000000D02*
X140940000Y-31500000D01*
X115910000Y-77250000D02*
X137250000Y-77250000D01*
X161993170Y-70706257D02*
X161993170Y-73246257D01*
X137250000Y-77250000D02*
X136593169Y-76593169D01*
X136593169Y-73246257D02*
X134053170Y-70706257D01*
X140940000Y-31500000D02*
X163000000Y-31500000D01*
X161993170Y-73246257D02*
X161993170Y-84506830D01*
X136593169Y-76593169D02*
X136593169Y-73246257D01*
X163000000Y-31500000D02*
X163000000Y-69699427D01*
X163000000Y-69699427D02*
X161993170Y-70706257D01*
X108410000Y-84750000D02*
X115910000Y-77250000D01*
X161993170Y-84506830D02*
X161750000Y-84750000D01*
X161750000Y-84750000D02*
X159210000Y-84749999D01*
%TO.N,Net-(J1-Pin_1)*%
X136979999Y-38000000D02*
X136979999Y-39520001D01*
X136979999Y-39520001D02*
X108653170Y-67846830D01*
X108653170Y-67846830D02*
X108653170Y-70706257D01*
%TO.N,Net-(J1-Pin_15)*%
X139520001Y-55993080D02*
X127583170Y-67929911D01*
X139520001Y-38000000D02*
X139520001Y-55993080D01*
X127583170Y-72096258D02*
X126433171Y-73246257D01*
X127583170Y-67929911D02*
X127583170Y-72096258D01*
%TD*%
M02*
