%TF.GenerationSoftware,KiCad,Pcbnew,10.0.0*%
%TF.CreationDate,2026-04-09T18:24:32-07:00*%
%TF.ProjectId,v1,76312e6b-6963-4616-945f-706362585858,rev?*%
%TF.SameCoordinates,Original*%
%TF.FileFunction,Legend,Top*%
%TF.FilePolarity,Positive*%
%FSLAX46Y46*%
G04 Gerber Fmt 4.6, Leading zero omitted, Abs format (unit mm)*
G04 Created by KiCad (PCBNEW 10.0.0) date 2026-04-09 18:24:32*
%MOMM*%
%LPD*%
G01*
G04 APERTURE LIST*
%ADD10C,0.150000*%
%ADD11C,0.120000*%
%ADD12C,0.127000*%
%ADD13C,0.200000*%
G04 APERTURE END LIST*
D10*
X131794819Y-31516666D02*
X131794819Y-31992856D01*
X131794819Y-31992856D02*
X130794819Y-31992856D01*
X131794819Y-30659523D02*
X131794819Y-31230951D01*
X131794819Y-30945237D02*
X130794819Y-30945237D01*
X130794819Y-30945237D02*
X130937676Y-31040475D01*
X130937676Y-31040475D02*
X131032914Y-31135713D01*
X131032914Y-31135713D02*
X131080533Y-31230951D01*
X96848364Y-29925860D02*
X96141257Y-29218753D01*
X96477975Y-29555471D02*
X96882036Y-29151410D01*
X97252425Y-29521799D02*
X96545318Y-28814692D01*
X96814692Y-28545318D02*
X97252425Y-28107586D01*
X97252425Y-28107586D02*
X97286097Y-28612662D01*
X97286097Y-28612662D02*
X97387112Y-28511647D01*
X97387112Y-28511647D02*
X97488127Y-28477975D01*
X97488127Y-28477975D02*
X97555471Y-28477975D01*
X97555471Y-28477975D02*
X97656486Y-28511647D01*
X97656486Y-28511647D02*
X97824845Y-28680005D01*
X97824845Y-28680005D02*
X97858517Y-28781021D01*
X97858517Y-28781021D02*
X97858517Y-28848364D01*
X97858517Y-28848364D02*
X97824845Y-28949379D01*
X97824845Y-28949379D02*
X97622814Y-29151410D01*
X97622814Y-29151410D02*
X97521799Y-29185082D01*
X97521799Y-29185082D02*
X97454456Y-29185082D01*
X96225153Y-124717350D02*
X96932260Y-124010243D01*
X96595542Y-124346961D02*
X96999603Y-124751022D01*
X96629214Y-125121411D02*
X97336321Y-124414304D01*
X97336321Y-125828518D02*
X96932260Y-125424457D01*
X97134290Y-125626487D02*
X97841397Y-124919381D01*
X97841397Y-124919381D02*
X97673038Y-124953052D01*
X97673038Y-124953052D02*
X97538351Y-124953052D01*
X97538351Y-124953052D02*
X97437336Y-124919381D01*
X106280714Y-90567319D02*
X106280714Y-89567319D01*
X106280714Y-89567319D02*
X106518809Y-89567319D01*
X106518809Y-89567319D02*
X106661666Y-89614938D01*
X106661666Y-89614938D02*
X106756904Y-89710176D01*
X106756904Y-89710176D02*
X106804523Y-89805414D01*
X106804523Y-89805414D02*
X106852142Y-89995890D01*
X106852142Y-89995890D02*
X106852142Y-90138747D01*
X106852142Y-90138747D02*
X106804523Y-90329223D01*
X106804523Y-90329223D02*
X106756904Y-90424461D01*
X106756904Y-90424461D02*
X106661666Y-90519700D01*
X106661666Y-90519700D02*
X106518809Y-90567319D01*
X106518809Y-90567319D02*
X106280714Y-90567319D01*
X107233095Y-90519700D02*
X107375952Y-90567319D01*
X107375952Y-90567319D02*
X107614047Y-90567319D01*
X107614047Y-90567319D02*
X107709285Y-90519700D01*
X107709285Y-90519700D02*
X107756904Y-90472080D01*
X107756904Y-90472080D02*
X107804523Y-90376842D01*
X107804523Y-90376842D02*
X107804523Y-90281604D01*
X107804523Y-90281604D02*
X107756904Y-90186366D01*
X107756904Y-90186366D02*
X107709285Y-90138747D01*
X107709285Y-90138747D02*
X107614047Y-90091128D01*
X107614047Y-90091128D02*
X107423571Y-90043509D01*
X107423571Y-90043509D02*
X107328333Y-89995890D01*
X107328333Y-89995890D02*
X107280714Y-89948271D01*
X107280714Y-89948271D02*
X107233095Y-89853033D01*
X107233095Y-89853033D02*
X107233095Y-89757795D01*
X107233095Y-89757795D02*
X107280714Y-89662557D01*
X107280714Y-89662557D02*
X107328333Y-89614938D01*
X107328333Y-89614938D02*
X107423571Y-89567319D01*
X107423571Y-89567319D02*
X107661666Y-89567319D01*
X107661666Y-89567319D02*
X107804523Y-89614938D01*
X108756904Y-90567319D02*
X108185476Y-90567319D01*
X108471190Y-90567319D02*
X108471190Y-89567319D01*
X108471190Y-89567319D02*
X108375952Y-89710176D01*
X108375952Y-89710176D02*
X108280714Y-89805414D01*
X108280714Y-89805414D02*
X108185476Y-89853033D01*
X193074139Y-28848364D02*
X193781246Y-28141257D01*
X193444528Y-28477975D02*
X193848589Y-28882036D01*
X193478200Y-29252425D02*
X194185307Y-28545318D01*
X194589368Y-29420784D02*
X194117963Y-29892188D01*
X194690383Y-28983051D02*
X194016948Y-29319769D01*
X194016948Y-29319769D02*
X194454681Y-29757501D01*
X193717350Y-125794846D02*
X193010243Y-125087739D01*
X193346961Y-125424457D02*
X193751022Y-125020396D01*
X194121411Y-125390785D02*
X193414304Y-124683678D01*
X193784694Y-124447976D02*
X193784694Y-124380633D01*
X193784694Y-124380633D02*
X193818365Y-124279617D01*
X193818365Y-124279617D02*
X193986724Y-124111259D01*
X193986724Y-124111259D02*
X194087739Y-124077587D01*
X194087739Y-124077587D02*
X194155083Y-124077587D01*
X194155083Y-124077587D02*
X194256098Y-124111259D01*
X194256098Y-124111259D02*
X194323442Y-124178602D01*
X194323442Y-124178602D02*
X194390785Y-124313289D01*
X194390785Y-124313289D02*
X194390785Y-125121411D01*
X194390785Y-125121411D02*
X194828518Y-124683678D01*
%TO.C,L1*%
D11*
X130340000Y-29970000D02*
X130340000Y-31350000D01*
X128960000Y-29970000D02*
X130340000Y-29970000D01*
X127690000Y-29970000D02*
X109800000Y-29970000D01*
X127690000Y-29970000D02*
X127690000Y-32730000D01*
X109800000Y-29970000D02*
X109800000Y-32730000D01*
X127690000Y-32730000D02*
X109800000Y-32730000D01*
%TO.C,T1*%
X177720000Y-34430000D02*
X177720000Y-31670000D01*
X172530000Y-34430000D02*
X177720000Y-34430000D01*
X172530000Y-34430000D02*
X172530000Y-31670000D01*
X172530000Y-31670000D02*
X177720000Y-31670000D01*
X171260000Y-34429999D02*
X169880000Y-34430000D01*
X169880000Y-34430000D02*
X169880001Y-33050000D01*
%TO.C,DS1*%
D12*
X104320000Y-91147500D02*
X139820000Y-91147500D01*
X104320000Y-124847500D02*
X104320000Y-91147500D01*
X139820000Y-91147500D02*
X139820000Y-124847500D01*
X139820000Y-124847500D02*
X104320000Y-124847500D01*
D13*
X118360000Y-90597500D02*
G75*
G02*
X118160000Y-90597500I-100000J0D01*
G01*
X118160000Y-90597500D02*
G75*
G02*
X118360000Y-90597500I100000J0D01*
G01*
%TD*%
M02*
