M48
; DRILL file KiCad 10.0.0 date 2026-04-03T20:48:36
; FORMAT={-:-/ absolute / metric / decimal}
; #@! TF.CreationDate,2026-04-03T20:48:36-07:00
; #@! TF.GenerationSoftware,Kicad,Pcbnew,10.0.0
; #@! TF.FileFunction,Plated,1,2,PTH
FMAT,2
METRIC
; #@! TA.AperFunction,Plated,PTH,ComponentDrill
T1C0.800
; #@! TA.AperFunction,Plated,PTH,ComponentDrill
T2C1.000
; #@! TA.AperFunction,Plated,PTH,ComponentDrill
T3C2.000
%
G90
G05
T1
X108.41Y-84.75
X108.41Y-107.61
X110.95Y-84.75
X110.95Y-107.61
X113.49Y-84.75
X113.49Y-107.61
X116.03Y-84.75
X116.03Y-107.61
X118.57Y-84.75
X118.57Y-107.61
X121.11Y-84.75
X121.11Y-107.61
X123.65Y-84.75
X123.65Y-107.61
X126.19Y-84.75
X126.19Y-107.61
X128.73Y-84.75
X128.73Y-107.61
X131.27Y-84.75
X131.27Y-107.61
X133.81Y-84.75
X133.81Y-107.61
X136.35Y-84.75
X136.35Y-107.61
X138.89Y-84.75
X138.89Y-107.61
X141.43Y-84.75
X141.43Y-107.61
X143.97Y-84.75
X143.97Y-107.61
X146.51Y-84.75
X146.51Y-107.61
X149.05Y-84.75
X149.05Y-107.61
X151.59Y-84.75
X151.59Y-107.61
X154.13Y-84.75
X154.13Y-107.61
X156.667Y-107.614
X156.67Y-84.75
X159.207Y-107.614
X159.21Y-84.75
X161.747Y-107.614
X161.75Y-84.75
T2
X108.653Y-70.706
X108.653Y-73.246
X111.193Y-70.706
X111.193Y-73.246
X113.733Y-73.246
X113.733Y-70.706
X116.273Y-70.706
X116.273Y-73.246
X118.813Y-70.706
X118.813Y-73.246
X121.353Y-70.706
X121.353Y-73.246
X123.893Y-70.706
X123.893Y-73.246
X126.433Y-70.706
X126.433Y-73.246
X128.973Y-70.706
X128.973Y-73.246
X131.513Y-70.706
X131.513Y-73.246
X134.053Y-70.706
X134.053Y-73.246
X134.44Y-38.0
X136.593Y-73.246
X136.593Y-70.706
X136.98Y-38.0
X139.133Y-70.706
X139.133Y-73.246
X139.52Y-38.0
X141.673Y-70.706
X141.673Y-73.246
X142.06Y-38.0
X144.213Y-70.706
X144.213Y-73.246
X146.753Y-73.246
X146.753Y-70.706
X149.293Y-70.706
X149.293Y-73.246
X151.833Y-70.706
X151.833Y-73.246
X154.373Y-70.706
X154.373Y-73.246
X156.913Y-70.706
X156.913Y-73.246
X159.453Y-73.246
X159.453Y-70.706
X161.993Y-70.706
X161.993Y-73.246
T3
X127.25Y-38.5
X127.25Y-60.5
X149.25Y-38.5
X149.25Y-60.5
M30
