M48
; DRILL file KiCad 10.0.0 date 2026-04-09T18:24:29
; FORMAT={-:-/ absolute / metric / decimal}
; #@! TF.CreationDate,2026-04-09T18:24:29-07:00
; #@! TF.GenerationSoftware,Kicad,Pcbnew,10.0.0
; #@! TF.FileFunction,Plated,1,2,PTH
FMAT,2
METRIC
; #@! TA.AperFunction,Plated,PTH,ViaDrill
T1C0.300
; #@! TA.AperFunction,Plated,PTH,ComponentDrill
T2C0.800
; #@! TA.AperFunction,Plated,PTH,ComponentDrill
T3C1.000
%
G90
G05
T1
X122.8Y-91.1
X142.9Y-68.6
X145.0Y-59.0
X147.1Y-96.9
X147.8Y-61.8
X148.25Y-52.5
X148.7Y-96.9
X148.7Y-98.0
X149.3Y-65.1
X149.8Y-96.9
X156.5Y-33.0
T2
X146.426Y-65.073
X146.426Y-67.613
X146.426Y-70.153
X146.43Y-72.69
X146.43Y-75.23
X146.43Y-77.77
X146.43Y-80.31
X146.43Y-82.85
X146.43Y-85.39
X146.43Y-87.93
X146.43Y-90.47
X146.43Y-93.01
X146.43Y-95.55
X146.43Y-98.09
X146.43Y-100.63
X146.43Y-103.17
X146.43Y-105.71
X146.43Y-108.25
X146.43Y-110.79
X146.43Y-113.33
X146.43Y-115.87
X146.43Y-118.41
X169.29Y-65.07
X169.29Y-70.15
X169.29Y-72.69
X169.29Y-75.23
X169.29Y-77.77
X169.29Y-80.31
X169.29Y-82.85
X169.29Y-85.39
X169.29Y-87.93
X169.29Y-90.47
X169.29Y-93.01
X169.29Y-95.55
X169.29Y-98.09
X169.29Y-100.63
X169.29Y-103.17
X169.29Y-105.71
X169.29Y-108.25
X169.29Y-110.79
X169.29Y-113.33
X169.29Y-115.87
X169.29Y-118.41
X169.29Y-67.61
T3
X111.18Y-31.35
X113.72Y-31.35
X116.26Y-31.35
X118.26Y-92.447
X118.8Y-31.35
X120.8Y-92.447
X121.34Y-31.35
X123.34Y-92.447
X123.88Y-31.35
X125.88Y-92.447
X126.42Y-31.35
X128.96Y-31.35
X171.26Y-33.05
X173.8Y-33.05
X176.34Y-33.05
M30
