M48
; DRILL file KiCad 10.0.0 date 2026-04-10T13:21:50
; FORMAT={-:-/ absolute / metric / decimal}
; #@! TF.CreationDate,2026-04-10T13:21:50-07:00
; #@! TF.GenerationSoftware,Kicad,Pcbnew,10.0.0
; #@! TF.FileFunction,Plated,1,2,PTH
FMAT,2
METRIC
; #@! TA.AperFunction,Plated,PTH,ViaDrill
T1C0.300
; #@! TA.AperFunction,Plated,PTH,ComponentDrill
T2C0.450
; #@! TA.AperFunction,Plated,PTH,ComponentDrill
T3C0.500
; #@! TA.AperFunction,Plated,PTH,ComponentDrill
T4C0.800
; #@! TA.AperFunction,Plated,PTH,ComponentDrill
T5C1.000
%
G90
G05
T1
X118.8Y-46.9
X127.6Y-98.0
X135.35Y-97.9
X138.55Y-97.95
X139.95Y-83.8
X142.6Y-88.6
X142.7Y-96.15
X144.75Y-93.95
X146.15Y-93.35
X149.4Y-85.1
X149.75Y-94.8
X149.8Y-91.2
X150.05Y-97.7
X150.05Y-99.1
X151.15Y-90.85
X152.75Y-117.25
X156.35Y-70.25
X160.099Y-98.899
X160.701Y-99.501
X161.45Y-111.85
X167.75Y-91.05
X171.55Y-118.45
X172.85Y-88.0
X174.1Y-101.1
X183.199Y-96.301
X183.801Y-95.699
X185.05Y-103.2
X185.75Y-99.65
X189.7Y-97.7
X190.2Y-95.35
X190.35Y-89.85
T4
X150.42Y-123.35
X160.58Y-123.35
X183.55Y-55.2
X183.55Y-65.36
T5
X111.18Y-31.35
X113.72Y-31.35
X116.26Y-31.35
X118.26Y-92.447
X118.8Y-31.35
X120.8Y-92.447
X121.34Y-31.35
X123.34Y-92.447
X123.88Y-31.35
X125.88Y-92.447
X126.42Y-31.35
X128.96Y-31.35
X171.26Y-33.05
X173.8Y-33.05
X176.34Y-33.05
T2
G00X187.335Y-92.35
M15
G01X187.335Y-91.7
M16
G05
G00X187.335Y-101.1
M15
G01X187.335Y-100.45
M16
G05
T3
G00X190.2Y-91.45
M15
G01X191.9Y-91.45
M16
G05
G00X190.2Y-101.35
M15
G01X191.9Y-101.35
M16
G05
M30
